%
M48
M72
T01C0.0320
T02C0.0394
T03C0.0630
T04C0.1300
%
T01
X4150Y8150
X4150Y10150
X7150Y10150
X7150Y8150
X9150Y8150
X9150Y10150
X11150Y10150
X11150Y8150
X13150Y8150
X13150Y10150
X16150Y10150
X16150Y8150
T02
X18150Y7650
X18150Y6650
X18150Y5650
X18150Y4650
X19150Y4650
X19150Y5650
X19150Y6650
X19150Y7650
X19150Y8650
X19150Y9650
X19150Y10650
X19150Y11650
X19150Y12650
X19150Y13650
X18150Y13650
X18150Y12650
X18150Y11650
X18150Y10650
X18150Y9650
X18150Y8650
X2150Y8650
X2150Y9650
X2150Y10650
X2150Y11650
X2150Y12650
X2150Y13650
X1150Y13650
X1150Y12650
X1150Y11650
X1150Y10650
X1150Y9650
X1150Y8650
X1150Y7650
X1150Y6650
X1150Y5650
X1150Y4650
X2150Y4650
X2150Y5650
X2150Y6650
X2150Y7650
T03
X10150Y22050
X10150Y24450
T04
X1450Y1450
X18850Y1450
X18850Y24850
X1450Y24850
M30
