G75*
G70*
%OFA0B0*%
%FSLAX24Y24*%
%IPPOS*%
%LPD*%
%AMOC8*
5,1,8,0,0,1.08239X$1,22.5*
%
%ADD10C,0.0040*%
%ADD11R,0.0125X0.0025*%
%ADD12R,0.0580X0.0010*%
%ADD13R,0.0600X0.0010*%
%ADD14R,0.0160X0.0010*%
%ADD15R,0.0090X0.0010*%
%ADD16R,0.0080X0.0010*%
%ADD17R,0.0840X0.0010*%
%ADD18R,0.0630X0.0010*%
%ADD19R,0.0100X0.0010*%
%ADD20R,0.0730X0.0010*%
%ADD21R,0.0510X0.0010*%
%ADD22R,0.0450X0.0010*%
%ADD23R,0.0810X0.0010*%
%ADD24R,0.0150X0.0010*%
%ADD25R,0.0140X0.0010*%
%ADD26R,0.0940X0.0010*%
%ADD27R,0.0760X0.0010*%
%ADD28R,0.0130X0.0010*%
%ADD29R,0.0830X0.0010*%
%ADD30R,0.0850X0.0010*%
%ADD31R,0.0880X0.0010*%
%ADD32R,0.0170X0.0010*%
%ADD33R,0.0990X0.0010*%
%ADD34R,0.0820X0.0010*%
%ADD35R,0.0860X0.0010*%
%ADD36R,0.0720X0.0010*%
%ADD37R,0.0920X0.0010*%
%ADD38R,0.0930X0.0010*%
%ADD39R,0.0220X0.0010*%
%ADD40R,0.1020X0.0010*%
%ADD41R,0.0900X0.0010*%
%ADD42R,0.0780X0.0010*%
%ADD43R,0.0960X0.0010*%
%ADD44R,0.0800X0.0010*%
%ADD45R,0.0970X0.0010*%
%ADD46R,0.0240X0.0010*%
%ADD47R,0.1050X0.0010*%
%ADD48R,0.0180X0.0010*%
%ADD49R,0.0260X0.0010*%
%ADD50R,0.1080X0.0010*%
%ADD51R,0.0950X0.0010*%
%ADD52R,0.0910X0.0010*%
%ADD53R,0.1040X0.0010*%
%ADD54R,0.0290X0.0010*%
%ADD55R,0.1090X0.0010*%
%ADD56R,0.1010X0.0010*%
%ADD57R,0.0310X0.0010*%
%ADD58R,0.1100X0.0010*%
%ADD59R,0.0980X0.0010*%
%ADD60R,0.0330X0.0010*%
%ADD61R,0.1110X0.0010*%
%ADD62R,0.1070X0.0010*%
%ADD63R,0.1060X0.0010*%
%ADD64R,0.0340X0.0010*%
%ADD65R,0.1030X0.0010*%
%ADD66R,0.1130X0.0010*%
%ADD67R,0.1120X0.0010*%
%ADD68R,0.0350X0.0010*%
%ADD69R,0.1140X0.0010*%
%ADD70R,0.0250X0.0010*%
%ADD71R,0.0270X0.0010*%
%ADD72R,0.0300X0.0010*%
%ADD73R,0.0190X0.0010*%
%ADD74R,0.0230X0.0010*%
%ADD75R,0.0200X0.0010*%
%ADD76R,0.0480X0.0010*%
%ADD77R,0.0460X0.0010*%
%ADD78R,0.0430X0.0010*%
%ADD79R,0.0410X0.0010*%
%ADD80R,0.0390X0.0010*%
%ADD81R,0.0360X0.0010*%
%ADD82R,0.0370X0.0010*%
%ADD83R,0.0280X0.0010*%
%ADD84R,0.0400X0.0010*%
%ADD85R,0.1150X0.0010*%
%ADD86R,0.1300X0.0010*%
%ADD87R,0.0890X0.0010*%
%ADD88R,0.0420X0.0010*%
%ADD89R,0.0870X0.0010*%
%ADD90R,0.0470X0.0010*%
%ADD91R,0.1160X0.0010*%
%ADD92R,0.0490X0.0010*%
%ADD93R,0.1000X0.0010*%
%ADD94R,0.0210X0.0010*%
%ADD95R,0.0520X0.0010*%
%ADD96R,0.0530X0.0010*%
%ADD97R,0.0540X0.0010*%
%ADD98R,0.0550X0.0010*%
%ADD99R,0.0640X0.0010*%
%ADD100R,0.0320X0.0010*%
%ADD101R,0.0650X0.0010*%
%ADD102R,0.0560X0.0010*%
%ADD103R,0.0660X0.0010*%
%ADD104R,0.0500X0.0010*%
%ADD105R,0.0790X0.0010*%
%ADD106R,0.0740X0.0010*%
%ADD107R,0.0620X0.0010*%
%ADD108R,0.0680X0.0010*%
%ADD109R,0.0700X0.0010*%
%ADD110R,0.0030X0.0010*%
%ADD111R,0.0120X0.0010*%
%ADD112R,0.0110X0.0010*%
%ADD113R,0.0040X0.0010*%
%ADD114R,0.0610X0.0010*%
%ADD115R,0.0570X0.0010*%
%ADD116R,0.0070X0.0010*%
%ADD117C,0.0060*%
%ADD118C,0.0120*%
D10*
X000703Y003470D02*
X001010Y003470D01*
X000856Y003470D02*
X000856Y003930D01*
X001010Y003777D01*
X001163Y003930D02*
X001317Y003930D01*
X001240Y003930D02*
X001240Y003547D01*
X001317Y003470D01*
X001393Y003470D01*
X001470Y003547D01*
X001763Y003547D02*
X001839Y003470D01*
X001993Y003470D01*
X002070Y003547D01*
X001916Y003700D02*
X001839Y003700D01*
X001763Y003623D01*
X001763Y003547D01*
X001839Y003700D02*
X001763Y003777D01*
X001763Y003854D01*
X001839Y003930D01*
X001993Y003930D01*
X002070Y003854D01*
X002223Y003930D02*
X002377Y003930D01*
X002300Y003930D02*
X002300Y003547D01*
X002377Y003470D01*
X002453Y003470D01*
X002530Y003547D01*
X004478Y001130D02*
X004401Y001054D01*
X004708Y000747D01*
X004632Y000670D01*
X004478Y000670D01*
X004401Y000747D01*
X004401Y001054D01*
X004478Y001130D02*
X004632Y001130D01*
X004708Y001054D01*
X004708Y000747D01*
X005322Y000747D02*
X005322Y000670D01*
X005399Y000670D01*
X005399Y000747D01*
X005322Y000747D01*
X005552Y000977D02*
X005706Y000670D01*
X005859Y000977D01*
X006013Y000900D02*
X006013Y000823D01*
X006320Y000823D01*
X006320Y000747D02*
X006320Y000900D01*
X006243Y000977D01*
X006089Y000977D01*
X006013Y000900D01*
X006089Y000670D02*
X006243Y000670D01*
X006320Y000747D01*
X006473Y000670D02*
X006627Y000823D01*
X006550Y000823D02*
X006780Y000823D01*
X006780Y000670D02*
X006780Y001130D01*
X006550Y001130D01*
X006473Y001054D01*
X006473Y000900D01*
X006550Y000823D01*
X005980Y006970D02*
X005980Y007430D01*
X005750Y007430D01*
X005673Y007354D01*
X005673Y007200D01*
X005750Y007123D01*
X005980Y007123D01*
X005827Y007123D02*
X005673Y006970D01*
X005520Y006970D02*
X005213Y007277D01*
X005213Y007354D01*
X005289Y007430D01*
X005443Y007430D01*
X005520Y007354D01*
X005520Y006970D02*
X005213Y006970D01*
X005213Y008970D02*
X005520Y008970D01*
X005673Y008970D02*
X005827Y009123D01*
X005750Y009123D02*
X005980Y009123D01*
X005980Y008970D02*
X005980Y009430D01*
X005750Y009430D01*
X005673Y009354D01*
X005673Y009200D01*
X005750Y009123D01*
X005520Y009277D02*
X005366Y009430D01*
X005366Y008970D01*
X008763Y007354D02*
X008763Y007277D01*
X009070Y006970D01*
X008763Y006970D01*
X008763Y007354D02*
X008839Y007430D01*
X008993Y007430D01*
X009070Y007354D01*
X009223Y007354D02*
X009300Y007430D01*
X009453Y007430D01*
X009530Y007354D01*
X009530Y007047D01*
X009453Y006970D01*
X009300Y006970D01*
X009223Y007047D01*
X010763Y006970D02*
X011070Y006970D01*
X010916Y006970D02*
X010916Y007430D01*
X011070Y007277D01*
X011223Y007354D02*
X011300Y007430D01*
X011453Y007430D01*
X011530Y007354D01*
X011530Y007047D01*
X011453Y006970D01*
X011300Y006970D01*
X011223Y007047D01*
X014213Y007047D02*
X014289Y006970D01*
X014443Y006970D01*
X014520Y007047D01*
X014673Y006970D02*
X014827Y007123D01*
X014750Y007123D02*
X014980Y007123D01*
X014980Y006970D02*
X014980Y007430D01*
X014750Y007430D01*
X014673Y007354D01*
X014673Y007200D01*
X014750Y007123D01*
X014520Y007354D02*
X014443Y007430D01*
X014289Y007430D01*
X014213Y007354D01*
X014213Y007277D01*
X014289Y007200D01*
X014213Y007123D01*
X014213Y007047D01*
X014289Y007200D02*
X014366Y007200D01*
X014289Y008970D02*
X014289Y009430D01*
X014520Y009200D01*
X014213Y009200D01*
X014673Y009200D02*
X014750Y009123D01*
X014980Y009123D01*
X014980Y008970D02*
X014980Y009430D01*
X014750Y009430D01*
X014673Y009354D01*
X014673Y009200D01*
X014827Y009123D02*
X014673Y008970D01*
X017939Y003930D02*
X018170Y003700D01*
X017863Y003700D01*
X017939Y003470D02*
X017939Y003930D01*
X018323Y003930D02*
X018477Y003930D01*
X018400Y003930D02*
X018400Y003547D01*
X018477Y003470D01*
X018553Y003470D01*
X018630Y003547D01*
X018863Y003470D02*
X019170Y003470D01*
X018863Y003777D01*
X018863Y003854D01*
X018939Y003930D01*
X019093Y003930D01*
X019170Y003854D01*
X019323Y003930D02*
X019477Y003930D01*
X019400Y003930D02*
X019400Y003547D01*
X019477Y003470D01*
X019553Y003470D01*
X019630Y003547D01*
X010530Y020170D02*
X010223Y020630D01*
X010070Y020477D02*
X009916Y020630D01*
X009916Y020170D01*
X009763Y020170D02*
X010070Y020170D01*
X010223Y020170D02*
X010530Y020630D01*
D11*
X011200Y009175D03*
D12*
X009775Y018450D03*
X009775Y018600D03*
X003625Y017060D03*
X003625Y017050D03*
X003625Y017040D03*
X003625Y017030D03*
X003625Y017020D03*
X003625Y017010D03*
X003625Y017000D03*
X003625Y016990D03*
X003625Y016980D03*
X003625Y016970D03*
X003625Y016960D03*
X003625Y016950D03*
X003625Y016940D03*
X003625Y016930D03*
X003625Y016920D03*
X003625Y016910D03*
X003625Y016900D03*
X003625Y016890D03*
X003625Y016880D03*
X003625Y016870D03*
X003625Y016860D03*
X003625Y016850D03*
X003625Y016840D03*
X003625Y016830D03*
X003625Y016820D03*
X003625Y016810D03*
X003625Y016800D03*
X003625Y016790D03*
X003625Y016780D03*
X003625Y016770D03*
X003625Y016760D03*
X003625Y016750D03*
X003625Y016740D03*
X003625Y016730D03*
X003625Y016720D03*
X003625Y016710D03*
X003625Y016700D03*
X003625Y016690D03*
X003625Y016680D03*
X003625Y016670D03*
X003625Y016660D03*
X003625Y016650D03*
X003625Y016640D03*
X003625Y016630D03*
X003625Y016620D03*
X003625Y016610D03*
X003625Y016600D03*
X003625Y016590D03*
X003625Y016580D03*
X003625Y016570D03*
X003625Y016560D03*
X003625Y016550D03*
X003625Y016540D03*
X003625Y016530D03*
X003625Y016520D03*
X003625Y016510D03*
X003625Y016470D03*
X003625Y016460D03*
X003625Y016450D03*
X003625Y016440D03*
X003625Y016430D03*
X003625Y016420D03*
X003625Y016410D03*
X003625Y016400D03*
X003625Y016390D03*
X003625Y016380D03*
X003625Y016370D03*
X003625Y016360D03*
X003625Y016350D03*
X003625Y016340D03*
X003625Y016330D03*
X003625Y016320D03*
X003625Y016310D03*
X003625Y016300D03*
X003625Y016290D03*
X003625Y016280D03*
X003625Y016270D03*
X003625Y016260D03*
X003625Y016250D03*
X003625Y016240D03*
X003625Y016230D03*
X003625Y016220D03*
X003625Y016210D03*
X003625Y016200D03*
X003625Y016190D03*
X003625Y016180D03*
X003625Y016170D03*
X003625Y016160D03*
X003625Y016150D03*
X003625Y016140D03*
X003625Y016130D03*
X003625Y016120D03*
X003625Y016110D03*
X003625Y016100D03*
X003625Y016090D03*
X003625Y016080D03*
X003625Y016070D03*
X003625Y016060D03*
X003625Y016050D03*
X003625Y016040D03*
X003625Y016030D03*
X003625Y016020D03*
X003625Y016010D03*
X003625Y016000D03*
X003625Y015990D03*
X003625Y015980D03*
X003625Y015970D03*
X003625Y015960D03*
X003625Y015950D03*
X003625Y015940D03*
X003625Y015930D03*
X003625Y015920D03*
X003625Y015910D03*
X003625Y015900D03*
X003025Y016510D03*
X003025Y016520D03*
X003025Y016530D03*
X003025Y016540D03*
X003025Y016550D03*
X003025Y016560D03*
X003025Y016570D03*
X003025Y016580D03*
X003025Y016590D03*
X003025Y016600D03*
X003025Y016610D03*
X003025Y016620D03*
X003025Y016630D03*
X003025Y016640D03*
X003025Y016650D03*
X003025Y016660D03*
X003025Y016670D03*
X003025Y016680D03*
X003025Y016690D03*
X003025Y016700D03*
X003025Y016710D03*
X003025Y016720D03*
X003025Y016730D03*
X003025Y016740D03*
X003025Y016750D03*
X003025Y016760D03*
X003025Y016770D03*
X003025Y016780D03*
X003025Y016790D03*
X003025Y016800D03*
X003025Y016810D03*
X003025Y016820D03*
X003025Y016830D03*
X003025Y016840D03*
X003025Y016850D03*
X003025Y016860D03*
X003025Y016870D03*
X003025Y016880D03*
X003025Y016890D03*
X003025Y016900D03*
X003025Y016910D03*
X003025Y016920D03*
X003025Y016930D03*
X003025Y016940D03*
X003025Y016950D03*
X003025Y016960D03*
X003025Y016970D03*
X003025Y016980D03*
X003025Y016990D03*
X003025Y017000D03*
X003025Y017010D03*
X003025Y017020D03*
X003025Y017030D03*
X003025Y017040D03*
X003025Y017050D03*
X003025Y017060D03*
X003025Y017100D03*
X003025Y017110D03*
X003025Y017120D03*
X003025Y017130D03*
X003025Y017140D03*
X003025Y017150D03*
X003025Y017160D03*
X003025Y017170D03*
X003025Y017180D03*
X003025Y017190D03*
X003025Y017200D03*
X003025Y017210D03*
X003025Y017220D03*
X003025Y017230D03*
X003025Y017240D03*
X003025Y017250D03*
X003025Y017260D03*
X003025Y017270D03*
X003025Y017280D03*
X003025Y017290D03*
X003025Y017300D03*
X003025Y017310D03*
X003025Y017320D03*
X003025Y017330D03*
X003025Y017340D03*
X003025Y017350D03*
X003025Y017360D03*
X003025Y017370D03*
X003025Y017380D03*
X003025Y017390D03*
X003025Y017400D03*
X003025Y017410D03*
X003025Y017420D03*
X003025Y017430D03*
X003025Y017440D03*
X003025Y017450D03*
X003025Y017460D03*
X003025Y017470D03*
X003025Y017480D03*
X003025Y017490D03*
X003025Y017500D03*
X003025Y017510D03*
X003025Y017520D03*
X003025Y017530D03*
X003025Y017540D03*
X003025Y017550D03*
X003025Y017560D03*
X003025Y017570D03*
X003025Y017580D03*
X003025Y017590D03*
X003025Y017600D03*
X003025Y017610D03*
X003025Y017620D03*
X003025Y017630D03*
X003025Y017640D03*
X003025Y017650D03*
X003025Y017660D03*
X003025Y017700D03*
X003025Y017710D03*
X003025Y017720D03*
X003025Y017730D03*
X003025Y017740D03*
X003025Y017750D03*
X003025Y017760D03*
X003025Y017770D03*
X003025Y017780D03*
X003025Y017790D03*
X003025Y017800D03*
X003025Y017810D03*
X003025Y017820D03*
X003025Y017830D03*
X003025Y017840D03*
X003025Y017850D03*
X003025Y017860D03*
X003025Y017870D03*
X003025Y017880D03*
X003025Y017890D03*
X003025Y017900D03*
X003025Y017910D03*
X003025Y017920D03*
X003025Y017930D03*
X003025Y017940D03*
X003025Y017950D03*
X003025Y017960D03*
X003025Y017970D03*
X003025Y017980D03*
X003025Y017990D03*
X003025Y018000D03*
X003025Y018010D03*
X003025Y018020D03*
X003025Y018030D03*
X003025Y018040D03*
X003025Y018050D03*
X003025Y018060D03*
X003025Y018070D03*
X003025Y018080D03*
X003025Y018090D03*
X003025Y018100D03*
X003025Y018110D03*
X003025Y018120D03*
X003025Y018130D03*
X003025Y018140D03*
X003025Y018150D03*
X003025Y018160D03*
X003025Y018170D03*
X003025Y018180D03*
X003025Y018190D03*
X003025Y018200D03*
X003025Y018210D03*
X003025Y018220D03*
X003025Y018230D03*
X003025Y018240D03*
X003025Y018250D03*
X003025Y018260D03*
X003025Y018300D03*
X003025Y018310D03*
X003025Y018320D03*
X003025Y018330D03*
X003025Y018340D03*
X003025Y018350D03*
X003025Y018360D03*
X003025Y018370D03*
X003025Y018380D03*
X003025Y018390D03*
X003025Y018400D03*
X003025Y018410D03*
X003025Y018420D03*
X003025Y018430D03*
X003025Y018440D03*
X003025Y018450D03*
X003025Y018460D03*
X003025Y018470D03*
X003025Y018480D03*
X003025Y018490D03*
X003025Y018500D03*
X003025Y018510D03*
X003025Y018520D03*
X003025Y018530D03*
X003025Y018540D03*
X003025Y018550D03*
X003025Y018560D03*
X003025Y018570D03*
X003025Y018580D03*
X003025Y018590D03*
X003025Y018600D03*
X003025Y018610D03*
X003025Y018620D03*
X003025Y018630D03*
X003025Y018640D03*
X003025Y018650D03*
X003025Y018660D03*
X003025Y018670D03*
X003025Y018680D03*
X003025Y018690D03*
X003025Y018700D03*
X003025Y018710D03*
X003025Y018720D03*
X003025Y018730D03*
X003025Y018740D03*
X003025Y018750D03*
X003025Y018760D03*
X003025Y018770D03*
X003025Y018780D03*
X003025Y018790D03*
X003025Y018800D03*
X003025Y018810D03*
X003025Y018820D03*
X003025Y018830D03*
X003025Y018840D03*
X003025Y018850D03*
X003025Y018860D03*
X003025Y018900D03*
X003025Y018910D03*
X003025Y018920D03*
X003025Y018930D03*
X003025Y018940D03*
X003025Y018950D03*
X003025Y018960D03*
X003025Y018970D03*
X003025Y018980D03*
X003025Y018990D03*
X003025Y019000D03*
X003025Y019010D03*
X003025Y019020D03*
X003025Y019030D03*
X003025Y019040D03*
X003025Y019050D03*
X003025Y019060D03*
X003025Y019070D03*
X003025Y019080D03*
X003025Y019090D03*
X003025Y019100D03*
X003025Y019110D03*
X003025Y019120D03*
X003025Y019130D03*
X003025Y019140D03*
X003025Y019150D03*
X003025Y019160D03*
X003025Y019170D03*
X003025Y019180D03*
X003025Y019190D03*
X003025Y019200D03*
X003025Y019210D03*
X003025Y019220D03*
X003025Y019230D03*
X003025Y019240D03*
X003025Y019250D03*
X003025Y019260D03*
X003025Y019270D03*
X003025Y019280D03*
X003025Y019290D03*
X003025Y019300D03*
X003025Y019310D03*
X003025Y019320D03*
X003025Y019330D03*
X003025Y019340D03*
X003025Y019350D03*
X003025Y019360D03*
X003025Y019370D03*
X003025Y019380D03*
X003025Y019390D03*
X003025Y019400D03*
X003025Y019410D03*
X003025Y019420D03*
X003025Y019430D03*
X003025Y019440D03*
X003025Y019450D03*
X003025Y019480D03*
X003025Y019490D03*
X003025Y019500D03*
X003025Y019510D03*
X003025Y019520D03*
X003025Y019530D03*
X003025Y019540D03*
X003025Y019550D03*
X003025Y019560D03*
X003025Y019570D03*
X003025Y019580D03*
X003025Y019590D03*
X003025Y019600D03*
X003025Y019610D03*
X003025Y019620D03*
X003025Y019630D03*
X003025Y019640D03*
X003025Y019650D03*
X003025Y019660D03*
X003025Y019670D03*
X003025Y019680D03*
X003025Y019690D03*
X003025Y019700D03*
X003025Y019710D03*
X003025Y019720D03*
X003025Y019730D03*
X003025Y019740D03*
X003025Y019750D03*
X003025Y019760D03*
X003025Y019770D03*
X003025Y019780D03*
X003025Y019790D03*
X003025Y019800D03*
X003025Y019810D03*
X003025Y019820D03*
X003025Y019830D03*
X003025Y019840D03*
X003025Y019850D03*
X003025Y019860D03*
X003025Y019870D03*
X003025Y019880D03*
X003025Y019890D03*
X003025Y019900D03*
X003025Y019910D03*
X003025Y019920D03*
X003025Y019930D03*
X003025Y019940D03*
X003025Y019950D03*
X003025Y019960D03*
X003025Y019970D03*
X003025Y019980D03*
X003025Y019990D03*
X003025Y020000D03*
X003025Y020010D03*
X003025Y020020D03*
X003025Y020030D03*
X003025Y020040D03*
X003025Y020050D03*
X002425Y019450D03*
X002425Y019440D03*
X002425Y019430D03*
X002425Y019420D03*
X002425Y019410D03*
X002425Y019400D03*
X002425Y019390D03*
X002425Y019380D03*
X002425Y019370D03*
X002425Y019360D03*
X002425Y019350D03*
X002425Y019340D03*
X002425Y019330D03*
X002425Y019320D03*
X002425Y019310D03*
X002425Y019300D03*
X002425Y019290D03*
X002425Y019280D03*
X002425Y019270D03*
X002425Y019260D03*
X002425Y019250D03*
X002425Y019240D03*
X002425Y019230D03*
X002425Y019220D03*
X002425Y019210D03*
X002425Y019200D03*
X002425Y019190D03*
X002425Y019180D03*
X002425Y019170D03*
X002425Y019160D03*
X002425Y019150D03*
X002425Y019140D03*
X002425Y019130D03*
X002425Y019120D03*
X002425Y019110D03*
X002425Y019100D03*
X002425Y019090D03*
X002425Y019080D03*
X002425Y019070D03*
X002425Y019060D03*
X002425Y019050D03*
X002425Y019040D03*
X002425Y019030D03*
X002425Y019020D03*
X002425Y019010D03*
X002425Y019000D03*
X002425Y018990D03*
X002425Y018980D03*
X002425Y018970D03*
X002425Y018960D03*
X002425Y018950D03*
X002425Y018940D03*
X002425Y018930D03*
X002425Y018920D03*
X002425Y018910D03*
X002425Y018900D03*
X001835Y018860D03*
X001835Y018850D03*
X001835Y018840D03*
X001835Y018830D03*
X001835Y018820D03*
X001835Y018810D03*
X001835Y018800D03*
X001835Y018790D03*
X001835Y018780D03*
X001835Y018770D03*
X001835Y018760D03*
X001835Y018750D03*
X001835Y018740D03*
X001835Y018730D03*
X001835Y018720D03*
X001835Y018710D03*
X001835Y018700D03*
X001835Y018690D03*
X001835Y018680D03*
X001835Y018670D03*
X001835Y018660D03*
X001835Y018650D03*
X001835Y018640D03*
X001835Y018630D03*
X001835Y018620D03*
X001835Y018610D03*
X001835Y018600D03*
X001835Y018590D03*
X001835Y018580D03*
X001835Y018570D03*
X001835Y018560D03*
X001835Y018550D03*
X001835Y018540D03*
X001835Y018530D03*
X001835Y018520D03*
X001835Y018510D03*
X001835Y018500D03*
X001835Y018490D03*
X001835Y018480D03*
X001835Y018470D03*
X001835Y018460D03*
X001835Y018450D03*
X001835Y018440D03*
X001835Y018430D03*
X001835Y018420D03*
X001835Y018410D03*
X001835Y018400D03*
X001835Y018390D03*
X001835Y018380D03*
X001835Y018370D03*
X001835Y018360D03*
X001835Y018350D03*
X001835Y018340D03*
X001835Y018330D03*
X001835Y018320D03*
X001835Y018310D03*
X001835Y018300D03*
X018725Y018740D03*
D13*
X004235Y017060D03*
X004235Y017050D03*
X004235Y017040D03*
X004235Y017030D03*
X004235Y017020D03*
X004235Y017010D03*
X004235Y017000D03*
X004235Y016990D03*
X004235Y016980D03*
X004235Y016970D03*
X004235Y016960D03*
X004235Y016950D03*
X004235Y016940D03*
X004235Y016930D03*
X004235Y016920D03*
X004235Y016910D03*
X004235Y016900D03*
X004235Y016890D03*
X004235Y016880D03*
X004235Y016870D03*
X004235Y016860D03*
X004235Y016850D03*
X004235Y016840D03*
X004235Y016830D03*
X004235Y016820D03*
X004235Y016810D03*
X004235Y016800D03*
X004235Y016790D03*
X004235Y016780D03*
X004235Y016770D03*
X004235Y016760D03*
X004235Y016750D03*
X004235Y016740D03*
X004235Y016730D03*
X004235Y016720D03*
X004235Y016710D03*
X004235Y016700D03*
X004235Y016690D03*
X004235Y016680D03*
X004235Y016670D03*
X004235Y016660D03*
X004235Y016650D03*
X004235Y016640D03*
X004235Y016630D03*
X004235Y016620D03*
X004235Y016610D03*
X004235Y016600D03*
X004235Y016590D03*
X004235Y016580D03*
X004235Y016570D03*
X004235Y016560D03*
X004235Y016550D03*
X004235Y016540D03*
X004235Y016530D03*
X004235Y016520D03*
X004235Y016510D03*
X004235Y016470D03*
X004235Y016460D03*
X004235Y016450D03*
X004235Y016440D03*
X004235Y016430D03*
X004235Y016420D03*
X004235Y016410D03*
X004235Y016400D03*
X004235Y016390D03*
X004235Y016380D03*
X004235Y016370D03*
X004235Y016360D03*
X004235Y016350D03*
X004235Y016340D03*
X004235Y016330D03*
X004235Y016320D03*
X004235Y016310D03*
X004235Y016300D03*
X004235Y016290D03*
X004235Y016280D03*
X004235Y016270D03*
X004235Y016260D03*
X004235Y016250D03*
X004235Y016240D03*
X004235Y016230D03*
X004235Y016220D03*
X004235Y016210D03*
X004235Y016200D03*
X004235Y016190D03*
X004235Y016180D03*
X004235Y016170D03*
X004235Y016160D03*
X004235Y016150D03*
X004235Y016140D03*
X004235Y016130D03*
X004235Y016120D03*
X004235Y016110D03*
X004235Y016100D03*
X004235Y016090D03*
X004235Y016080D03*
X004235Y016070D03*
X004235Y016060D03*
X004235Y016050D03*
X004235Y016040D03*
X004235Y016030D03*
X004235Y016020D03*
X004235Y016010D03*
X004235Y016000D03*
X004235Y015990D03*
X004235Y015980D03*
X004235Y015970D03*
X004235Y015960D03*
X004235Y015950D03*
X004235Y015940D03*
X004235Y015930D03*
X004235Y015920D03*
X004235Y015910D03*
X004235Y015900D03*
D14*
X004915Y017800D03*
X004915Y017810D03*
X004915Y017820D03*
X004915Y017830D03*
X004915Y018780D03*
X004915Y018790D03*
X004915Y018800D03*
X006465Y018170D03*
X006465Y018160D03*
X006465Y018150D03*
X006465Y018140D03*
X006465Y018130D03*
X006465Y018120D03*
X006465Y018110D03*
X006465Y018100D03*
X006465Y018090D03*
X006465Y018080D03*
X006465Y018070D03*
X006465Y018060D03*
X006465Y018050D03*
X006465Y018040D03*
X007795Y017820D03*
X007795Y017810D03*
X007795Y017800D03*
X007795Y018790D03*
X007795Y018800D03*
X008905Y018790D03*
X009245Y018650D03*
X009245Y018640D03*
X009235Y018570D03*
X009235Y017820D03*
X008905Y017820D03*
X009885Y017820D03*
X009885Y017810D03*
X009885Y017800D03*
X009885Y018790D03*
X011405Y018570D03*
X011415Y018640D03*
X011415Y018650D03*
X011405Y017820D03*
X012995Y018010D03*
X012995Y018020D03*
X012995Y018030D03*
X012995Y018040D03*
X012995Y018050D03*
X012995Y018060D03*
X012995Y018070D03*
X012995Y018080D03*
X012995Y018090D03*
X012995Y018100D03*
X012995Y018110D03*
X012995Y018120D03*
X012995Y018130D03*
X012995Y018140D03*
X012995Y018150D03*
X012995Y018160D03*
X012995Y018170D03*
X012995Y018180D03*
X012995Y018190D03*
X012995Y018200D03*
X012995Y018210D03*
X012995Y018220D03*
X012995Y018230D03*
X012995Y018240D03*
X012995Y018250D03*
X012995Y018260D03*
X012995Y018270D03*
X012995Y018280D03*
X012995Y018290D03*
X012995Y018300D03*
X012995Y018310D03*
X012995Y018320D03*
X012995Y018330D03*
X012995Y018340D03*
X012995Y018350D03*
X012995Y018360D03*
X012995Y018370D03*
X012995Y018380D03*
X013935Y018330D03*
X013935Y018320D03*
X013935Y018310D03*
X013935Y018300D03*
X013935Y018290D03*
X013935Y018280D03*
X013935Y018270D03*
X013935Y018260D03*
X013935Y018250D03*
X013935Y018240D03*
X013935Y018230D03*
X013935Y018220D03*
X013935Y018210D03*
X013935Y018200D03*
X013935Y018190D03*
X013935Y018180D03*
X013935Y018170D03*
X013935Y018160D03*
X013935Y018150D03*
X013935Y018140D03*
X013935Y018130D03*
X013935Y018120D03*
X013935Y018110D03*
X013935Y018100D03*
X013935Y018090D03*
X013935Y018080D03*
X013935Y018070D03*
X013935Y018060D03*
X013935Y018050D03*
X013935Y018040D03*
X013935Y018030D03*
X014225Y017820D03*
X014225Y017810D03*
X014225Y017800D03*
X015185Y017800D03*
X015185Y017810D03*
X015185Y017820D03*
X015185Y017830D03*
X015515Y018010D03*
X015515Y018380D03*
X015515Y018390D03*
X015185Y018780D03*
X015185Y018790D03*
X015185Y018800D03*
X016475Y018360D03*
X016475Y018350D03*
X016475Y018340D03*
X016475Y018330D03*
X016475Y018320D03*
X016475Y018310D03*
X016475Y018300D03*
X016475Y018290D03*
X016475Y018280D03*
X016475Y018270D03*
X016475Y018260D03*
X016475Y018250D03*
X016475Y018240D03*
X016475Y018230D03*
X016475Y018220D03*
X016475Y018210D03*
X016475Y018200D03*
X016475Y018190D03*
X016475Y018180D03*
X016475Y018170D03*
X016475Y018160D03*
X016475Y018150D03*
X016475Y018140D03*
X016475Y018130D03*
X016475Y018120D03*
X016475Y018110D03*
X016475Y018100D03*
X016475Y018090D03*
X016475Y018080D03*
X016475Y018070D03*
X016475Y018060D03*
X016475Y018050D03*
X016475Y018040D03*
X016475Y018030D03*
X016475Y018020D03*
X016475Y018010D03*
X016475Y018000D03*
X016475Y017990D03*
X016475Y017980D03*
X016475Y017970D03*
X016475Y017960D03*
X016475Y017950D03*
X016475Y017780D03*
X016475Y017770D03*
X016475Y017760D03*
X016475Y017750D03*
X016475Y017740D03*
X016475Y017730D03*
X016475Y017720D03*
X016475Y017710D03*
X016475Y017700D03*
X016475Y017690D03*
X016475Y017680D03*
X016475Y017670D03*
X016475Y017660D03*
X016475Y017650D03*
X016475Y017640D03*
X016475Y017630D03*
X016475Y017620D03*
X016475Y017610D03*
X016775Y018010D03*
X016775Y018020D03*
X016775Y018030D03*
X016775Y018040D03*
X016775Y018050D03*
X016775Y018060D03*
X016775Y018070D03*
X016775Y018080D03*
X016775Y018090D03*
X016775Y018100D03*
X016775Y018110D03*
X016775Y018120D03*
X016775Y018130D03*
X016775Y018140D03*
X016775Y018150D03*
X016775Y018160D03*
X016775Y018170D03*
X016775Y018180D03*
X016775Y018190D03*
X016775Y018200D03*
X016775Y018210D03*
X016775Y018220D03*
X016775Y018230D03*
X016775Y018240D03*
X016775Y018250D03*
X016775Y018260D03*
X016775Y018270D03*
X016775Y018280D03*
X016775Y018290D03*
X016775Y018300D03*
X016775Y018310D03*
X016775Y018320D03*
X016775Y018330D03*
X016775Y018340D03*
X016775Y018350D03*
X016775Y018360D03*
X016775Y018370D03*
X016775Y018380D03*
X016775Y018390D03*
X016775Y018400D03*
X016775Y018410D03*
X016775Y018420D03*
X016775Y018430D03*
X016775Y018440D03*
X016775Y018450D03*
X016775Y018460D03*
X016775Y018470D03*
X016775Y018480D03*
X016775Y018490D03*
X016775Y018500D03*
X016775Y018510D03*
X016775Y018520D03*
X016775Y018530D03*
X016775Y018540D03*
X016775Y018550D03*
X016775Y018560D03*
D15*
X015180Y018820D03*
X015180Y018830D03*
X015180Y017780D03*
X011740Y017780D03*
X008900Y017780D03*
X008900Y018820D03*
X008900Y018830D03*
X004130Y017780D03*
D16*
X004915Y017780D03*
X004915Y018820D03*
X004915Y018830D03*
X007785Y018830D03*
X007785Y018820D03*
X007785Y017780D03*
X009235Y017780D03*
X009895Y018820D03*
X009895Y018830D03*
X011405Y017780D03*
X012675Y017780D03*
X014225Y017780D03*
D17*
X013455Y018550D03*
X012215Y018560D03*
X010765Y018260D03*
X005565Y017780D03*
D18*
X006960Y017780D03*
X009770Y018460D03*
X009770Y018470D03*
X013450Y017790D03*
X017280Y017790D03*
D19*
X009875Y017780D03*
D20*
X010550Y018130D03*
X010790Y017780D03*
D21*
X010870Y018540D03*
X013450Y018600D03*
X013450Y017780D03*
X006710Y018510D03*
X004740Y018110D03*
X004740Y018100D03*
D22*
X004770Y018250D03*
X006740Y018550D03*
X017290Y017780D03*
D23*
X018390Y017780D03*
X010590Y018140D03*
D24*
X011410Y017810D03*
X011410Y017800D03*
X011410Y018580D03*
X011410Y018590D03*
X009890Y018800D03*
X009240Y018590D03*
X009240Y018580D03*
X008910Y018800D03*
X008910Y017810D03*
X008910Y017800D03*
X009240Y017800D03*
X009240Y017810D03*
X004130Y017790D03*
X016780Y018570D03*
X017740Y018570D03*
D25*
X017745Y018580D03*
X017745Y018590D03*
X016775Y018590D03*
X016775Y018580D03*
X015185Y018810D03*
X015185Y017790D03*
X014225Y017790D03*
X012685Y017800D03*
X012685Y017810D03*
X011745Y017810D03*
X011745Y017800D03*
X011405Y017790D03*
X009235Y017790D03*
X008905Y018810D03*
X007795Y018810D03*
X007795Y017790D03*
X004915Y017790D03*
X004915Y018810D03*
D26*
X005595Y018590D03*
X005595Y018580D03*
X005595Y017790D03*
X006955Y017830D03*
X012215Y018540D03*
X015995Y018540D03*
D27*
X012215Y018570D03*
X006955Y017790D03*
D28*
X008900Y017790D03*
X009250Y018790D03*
X009880Y017790D03*
X011420Y018790D03*
X011740Y017790D03*
X012680Y017790D03*
X004150Y018580D03*
X004150Y018590D03*
D29*
X010770Y017790D03*
X014860Y018600D03*
D30*
X016000Y018560D03*
X016130Y017790D03*
X017270Y017830D03*
X013460Y017830D03*
X010610Y018150D03*
D31*
X010655Y018180D03*
X012215Y018550D03*
X013455Y017840D03*
X018415Y017790D03*
D32*
X019030Y018030D03*
X019030Y018040D03*
X019030Y018050D03*
X019030Y018060D03*
X019030Y018070D03*
X019030Y018080D03*
X019030Y018090D03*
X019030Y018100D03*
X019030Y018110D03*
X019030Y018120D03*
X019030Y018130D03*
X019030Y018140D03*
X019030Y018150D03*
X019030Y018160D03*
X019030Y018170D03*
X019030Y018180D03*
X019030Y018190D03*
X019030Y018200D03*
X019030Y018210D03*
X019030Y018380D03*
X019030Y018390D03*
X019030Y018400D03*
X019030Y018410D03*
X019030Y018420D03*
X019030Y018430D03*
X019030Y018440D03*
X019030Y018450D03*
X019030Y018460D03*
X019030Y018470D03*
X019030Y018480D03*
X019030Y018490D03*
X019030Y018500D03*
X019030Y018510D03*
X019030Y018520D03*
X019030Y018530D03*
X019030Y018540D03*
X019030Y018550D03*
X019030Y018560D03*
X019030Y018570D03*
X017750Y018560D03*
X017750Y018550D03*
X017750Y018540D03*
X017750Y018530D03*
X017750Y018520D03*
X017750Y018510D03*
X017750Y018500D03*
X017750Y018490D03*
X017750Y018480D03*
X017750Y018470D03*
X017750Y018460D03*
X017750Y018450D03*
X017750Y018440D03*
X017750Y018430D03*
X017750Y018420D03*
X017750Y018410D03*
X017750Y018400D03*
X017750Y018390D03*
X017750Y018380D03*
X017750Y018370D03*
X017750Y018360D03*
X017750Y018350D03*
X017750Y018340D03*
X017750Y018330D03*
X017750Y018320D03*
X017750Y018310D03*
X017750Y018300D03*
X017750Y018290D03*
X017750Y018280D03*
X017750Y018270D03*
X017750Y018260D03*
X017750Y018250D03*
X017750Y018240D03*
X017750Y018230D03*
X017750Y018220D03*
X017750Y018210D03*
X017750Y018200D03*
X017750Y018190D03*
X017750Y018180D03*
X017750Y018170D03*
X017750Y018160D03*
X017750Y018150D03*
X017750Y018140D03*
X017750Y018130D03*
X017750Y018120D03*
X017750Y018110D03*
X017750Y018100D03*
X017750Y018090D03*
X017750Y018080D03*
X017750Y018070D03*
X017750Y018060D03*
X017750Y018050D03*
X017750Y018040D03*
X017750Y018030D03*
X017750Y018020D03*
X017750Y018010D03*
X015190Y018010D03*
X015190Y018020D03*
X015190Y018030D03*
X015190Y018040D03*
X015190Y018050D03*
X015190Y018060D03*
X015190Y018070D03*
X015190Y018080D03*
X015190Y018090D03*
X015190Y018100D03*
X015190Y018110D03*
X015190Y018120D03*
X015190Y018130D03*
X015190Y018140D03*
X015190Y018150D03*
X015190Y018160D03*
X015190Y018170D03*
X015190Y018180D03*
X015190Y018190D03*
X015190Y018200D03*
X015190Y018210D03*
X015190Y018220D03*
X015190Y018230D03*
X015190Y018240D03*
X015190Y018250D03*
X015190Y018260D03*
X015190Y018270D03*
X015190Y018280D03*
X015190Y018290D03*
X015190Y018300D03*
X015190Y018310D03*
X015190Y018320D03*
X015190Y018330D03*
X015190Y018340D03*
X015190Y018350D03*
X015190Y018360D03*
X015190Y018370D03*
X015190Y018380D03*
X015190Y018390D03*
X015190Y018400D03*
X015190Y018410D03*
X015190Y018420D03*
X015190Y018430D03*
X015190Y018440D03*
X015190Y018610D03*
X015190Y018620D03*
X015190Y018630D03*
X015190Y018640D03*
X015190Y018650D03*
X015190Y018660D03*
X015190Y018670D03*
X015190Y018680D03*
X015190Y018690D03*
X015190Y018700D03*
X015190Y018710D03*
X015190Y018720D03*
X015190Y018730D03*
X015190Y018740D03*
X015190Y018750D03*
X015190Y018760D03*
X015190Y018770D03*
X015190Y018000D03*
X015190Y017990D03*
X015190Y017980D03*
X015190Y017970D03*
X015190Y017960D03*
X015190Y017950D03*
X015190Y017940D03*
X015190Y017930D03*
X015190Y017920D03*
X015190Y017910D03*
X015190Y017900D03*
X015190Y017890D03*
X015190Y017880D03*
X015190Y017870D03*
X015190Y017860D03*
X015190Y017850D03*
X015190Y017840D03*
X014220Y017840D03*
X014220Y017850D03*
X014220Y017860D03*
X014220Y017870D03*
X014220Y017880D03*
X014220Y017890D03*
X014220Y017900D03*
X014220Y017910D03*
X014220Y017920D03*
X014220Y017930D03*
X014220Y017940D03*
X014220Y017950D03*
X014220Y017960D03*
X014220Y017970D03*
X014220Y017980D03*
X014220Y017990D03*
X014220Y018000D03*
X014220Y018010D03*
X014220Y018020D03*
X014220Y018030D03*
X014220Y018040D03*
X014220Y018050D03*
X014220Y018060D03*
X014220Y018070D03*
X014220Y018080D03*
X014220Y018090D03*
X014220Y018100D03*
X014220Y018110D03*
X014220Y018120D03*
X014220Y018130D03*
X014220Y018140D03*
X014220Y018150D03*
X014220Y018160D03*
X014220Y018170D03*
X014220Y018180D03*
X014220Y018190D03*
X014220Y018200D03*
X014220Y018210D03*
X014220Y018220D03*
X014220Y018230D03*
X014220Y018240D03*
X014220Y018250D03*
X014220Y018260D03*
X014220Y018270D03*
X014220Y018280D03*
X014220Y018290D03*
X014220Y018300D03*
X014220Y018310D03*
X014220Y018320D03*
X014220Y018330D03*
X014220Y018340D03*
X014220Y018350D03*
X014220Y018360D03*
X014230Y018380D03*
X013930Y018370D03*
X013930Y018360D03*
X013930Y018350D03*
X013930Y018340D03*
X013930Y018020D03*
X013930Y018010D03*
X013930Y018000D03*
X014220Y017830D03*
X012680Y017830D03*
X012680Y017840D03*
X012680Y017850D03*
X012680Y017860D03*
X012680Y017870D03*
X012680Y017880D03*
X012680Y017890D03*
X012680Y017900D03*
X012680Y017910D03*
X012680Y017920D03*
X012680Y017930D03*
X012680Y017940D03*
X012680Y017950D03*
X012680Y017960D03*
X012680Y017970D03*
X012680Y017980D03*
X012680Y017990D03*
X012680Y018000D03*
X012680Y018010D03*
X012680Y018020D03*
X012680Y018030D03*
X012680Y018040D03*
X012680Y018050D03*
X012680Y018060D03*
X012680Y018070D03*
X012680Y018080D03*
X012680Y018090D03*
X012680Y018100D03*
X012680Y018110D03*
X012680Y018120D03*
X012680Y018130D03*
X012680Y018140D03*
X012680Y018150D03*
X012680Y018160D03*
X012680Y018170D03*
X012680Y018180D03*
X012680Y018190D03*
X012680Y018200D03*
X012680Y018210D03*
X012680Y018220D03*
X012680Y018230D03*
X012680Y018240D03*
X012680Y018250D03*
X012680Y018260D03*
X012680Y018270D03*
X012680Y018280D03*
X012680Y018290D03*
X012680Y018300D03*
X012680Y018310D03*
X012680Y018320D03*
X012680Y018330D03*
X012680Y018340D03*
X012680Y018350D03*
X012680Y018360D03*
X012680Y018370D03*
X012680Y018380D03*
X012680Y018390D03*
X012680Y017820D03*
X011750Y017820D03*
X011750Y017830D03*
X011750Y017840D03*
X011750Y017850D03*
X011750Y017860D03*
X011750Y017870D03*
X011750Y017880D03*
X011750Y017890D03*
X011750Y017900D03*
X011750Y017910D03*
X011750Y017920D03*
X011750Y017930D03*
X011750Y017940D03*
X011750Y017950D03*
X011750Y017960D03*
X011750Y017970D03*
X011750Y017980D03*
X011750Y017990D03*
X011750Y018000D03*
X011750Y018010D03*
X011750Y018020D03*
X011750Y018030D03*
X011750Y018040D03*
X011750Y018050D03*
X011750Y018060D03*
X011750Y018070D03*
X011750Y018080D03*
X011750Y018090D03*
X011750Y018100D03*
X011750Y018110D03*
X011750Y018120D03*
X011750Y018130D03*
X011750Y018140D03*
X011750Y018150D03*
X011750Y018160D03*
X011750Y018170D03*
X011750Y018180D03*
X011750Y018190D03*
X011750Y018200D03*
X011750Y018210D03*
X011750Y018220D03*
X011750Y018230D03*
X011750Y018240D03*
X011750Y018250D03*
X011750Y018260D03*
X011750Y018270D03*
X011750Y018280D03*
X011750Y018290D03*
X011750Y018300D03*
X011750Y018310D03*
X011750Y018320D03*
X011750Y018330D03*
X011750Y018340D03*
X011750Y018350D03*
X011750Y018360D03*
X011750Y018370D03*
X011750Y018380D03*
X011750Y018390D03*
X011410Y018390D03*
X011410Y018400D03*
X011410Y018410D03*
X011410Y018420D03*
X011410Y018430D03*
X011410Y018440D03*
X011410Y018450D03*
X011410Y018460D03*
X011410Y018470D03*
X011410Y018480D03*
X011410Y018490D03*
X011410Y018500D03*
X011410Y018510D03*
X011410Y018520D03*
X011410Y018530D03*
X011410Y018540D03*
X011410Y018550D03*
X011410Y018560D03*
X011410Y018380D03*
X011410Y018370D03*
X011410Y018360D03*
X011410Y018350D03*
X011410Y018340D03*
X011410Y018330D03*
X011410Y018320D03*
X011410Y018310D03*
X011410Y018300D03*
X011410Y018290D03*
X011410Y018280D03*
X011410Y018270D03*
X011410Y018260D03*
X011410Y018250D03*
X011410Y018240D03*
X011410Y018230D03*
X011410Y018220D03*
X011410Y018210D03*
X011410Y018200D03*
X011410Y018190D03*
X011410Y018180D03*
X011410Y018170D03*
X011410Y018160D03*
X011410Y018150D03*
X011410Y018140D03*
X011410Y018130D03*
X011410Y018120D03*
X011410Y018110D03*
X011410Y018100D03*
X011410Y018090D03*
X011410Y018080D03*
X011410Y018070D03*
X011410Y018060D03*
X011410Y018050D03*
X011410Y018040D03*
X011410Y018030D03*
X011410Y018020D03*
X011410Y018010D03*
X011410Y018000D03*
X011410Y017990D03*
X011410Y017980D03*
X011410Y017970D03*
X011410Y017960D03*
X011410Y017950D03*
X011410Y017940D03*
X011410Y017930D03*
X011410Y017920D03*
X011410Y017910D03*
X011410Y017900D03*
X011410Y017890D03*
X011410Y017880D03*
X011410Y017870D03*
X011410Y017860D03*
X011410Y017850D03*
X011410Y017840D03*
X011410Y017830D03*
X011110Y018330D03*
X011110Y018340D03*
X011110Y018350D03*
X011110Y018360D03*
X011110Y018370D03*
X011110Y018380D03*
X011110Y018390D03*
X011110Y018400D03*
X011110Y018410D03*
X011110Y018420D03*
X011420Y018780D03*
X010260Y018070D03*
X010260Y018060D03*
X010260Y018050D03*
X010260Y018040D03*
X010260Y018030D03*
X010260Y018020D03*
X010260Y018010D03*
X010260Y018000D03*
X009890Y018000D03*
X009890Y018010D03*
X009890Y018020D03*
X009890Y018030D03*
X009890Y018040D03*
X009890Y018050D03*
X009890Y018060D03*
X009890Y018070D03*
X009890Y018080D03*
X009890Y018090D03*
X009890Y018100D03*
X009890Y018110D03*
X009890Y018120D03*
X009890Y018130D03*
X009890Y018140D03*
X009890Y018150D03*
X009890Y018160D03*
X009890Y018170D03*
X009890Y018180D03*
X009890Y018190D03*
X009890Y018200D03*
X009890Y018210D03*
X009890Y018220D03*
X009890Y018230D03*
X009890Y018240D03*
X009890Y018250D03*
X009890Y018260D03*
X009890Y018270D03*
X009890Y018280D03*
X009890Y018290D03*
X009890Y018300D03*
X009890Y018310D03*
X009890Y018320D03*
X009890Y018330D03*
X009890Y018340D03*
X009890Y018350D03*
X009890Y018360D03*
X009890Y018370D03*
X009890Y018380D03*
X009890Y018390D03*
X009890Y018400D03*
X009890Y018410D03*
X009890Y018420D03*
X009890Y018430D03*
X009890Y018440D03*
X009890Y018610D03*
X009890Y018620D03*
X009890Y018630D03*
X009890Y018640D03*
X009890Y018650D03*
X009890Y018660D03*
X009890Y018670D03*
X009890Y018680D03*
X009890Y018690D03*
X009890Y018700D03*
X009890Y018710D03*
X009890Y018720D03*
X009890Y018730D03*
X009890Y018740D03*
X009890Y018750D03*
X009890Y018760D03*
X009890Y018770D03*
X009890Y018780D03*
X009250Y018780D03*
X009240Y018560D03*
X009240Y018550D03*
X009240Y018540D03*
X009240Y018530D03*
X009240Y018520D03*
X009240Y018510D03*
X009240Y018500D03*
X009240Y018490D03*
X009240Y018480D03*
X009240Y018470D03*
X009240Y018460D03*
X009240Y018450D03*
X009240Y018440D03*
X009240Y018430D03*
X009240Y018420D03*
X009240Y018410D03*
X009240Y018400D03*
X009240Y018390D03*
X009240Y018380D03*
X009240Y018370D03*
X009240Y018360D03*
X009240Y018350D03*
X009240Y018340D03*
X009240Y018330D03*
X009240Y018320D03*
X009240Y018310D03*
X009240Y018300D03*
X009240Y018290D03*
X009240Y018280D03*
X009240Y018270D03*
X009240Y018260D03*
X009240Y018250D03*
X009240Y018240D03*
X009240Y018230D03*
X009240Y018220D03*
X009240Y018210D03*
X009240Y018200D03*
X009240Y018190D03*
X009240Y018180D03*
X009240Y018170D03*
X009240Y018160D03*
X009240Y018150D03*
X009240Y018140D03*
X009240Y018130D03*
X009240Y018120D03*
X009240Y018110D03*
X009240Y018100D03*
X009240Y018090D03*
X009240Y018080D03*
X009240Y018070D03*
X009240Y018060D03*
X009240Y018050D03*
X009240Y018040D03*
X009240Y018030D03*
X009240Y018020D03*
X009240Y018010D03*
X009240Y018000D03*
X009240Y017990D03*
X009240Y017980D03*
X009240Y017970D03*
X009240Y017960D03*
X009240Y017950D03*
X009240Y017940D03*
X009240Y017930D03*
X009240Y017920D03*
X009240Y017910D03*
X009240Y017900D03*
X009240Y017890D03*
X009240Y017880D03*
X009240Y017870D03*
X009240Y017860D03*
X009240Y017850D03*
X009240Y017840D03*
X009240Y017830D03*
X009890Y017830D03*
X009890Y017840D03*
X009890Y017850D03*
X009890Y017860D03*
X009890Y017870D03*
X009890Y017880D03*
X009890Y017890D03*
X009890Y017900D03*
X009890Y017910D03*
X009890Y017920D03*
X009890Y017930D03*
X009890Y017940D03*
X009890Y017950D03*
X009890Y017960D03*
X009890Y017970D03*
X009890Y017980D03*
X009890Y017990D03*
X007480Y018000D03*
X007480Y018010D03*
X007480Y018020D03*
X007480Y018030D03*
X007480Y018040D03*
X007480Y018050D03*
X007480Y018060D03*
X007480Y018070D03*
X007480Y018080D03*
X007480Y018090D03*
X007480Y018100D03*
X007480Y018110D03*
X007480Y018120D03*
X007480Y018130D03*
X007480Y018140D03*
X007480Y018150D03*
X006470Y018180D03*
X006470Y018190D03*
X006470Y018200D03*
X006470Y018210D03*
X006470Y018380D03*
X006470Y018390D03*
X006190Y018370D03*
X006190Y018360D03*
X006190Y018350D03*
X006190Y018340D03*
X006190Y018330D03*
X006190Y018320D03*
X006190Y018310D03*
X006190Y018300D03*
X006190Y018290D03*
X006190Y018280D03*
X006190Y018270D03*
X006190Y018260D03*
X006190Y018250D03*
X006190Y018240D03*
X006190Y018230D03*
X006190Y018220D03*
X006190Y018210D03*
X006190Y018200D03*
X006190Y018190D03*
X006190Y018180D03*
X006190Y018170D03*
X006190Y018160D03*
X006190Y018150D03*
X006190Y018140D03*
X006190Y018130D03*
X006190Y018120D03*
X006190Y018110D03*
X006190Y018100D03*
X006190Y018090D03*
X006190Y018080D03*
X006190Y018070D03*
X006190Y018060D03*
X006190Y018050D03*
X006190Y018040D03*
X006190Y018030D03*
X006190Y018020D03*
X006180Y018000D03*
X006470Y018000D03*
X006470Y018010D03*
X006470Y018020D03*
X006470Y018030D03*
X006180Y018380D03*
X006180Y018390D03*
X004910Y018390D03*
X004910Y018400D03*
X004910Y018410D03*
X004910Y018420D03*
X004910Y018430D03*
X004910Y018440D03*
X004910Y018450D03*
X004910Y018460D03*
X004910Y018470D03*
X004910Y018480D03*
X004910Y018490D03*
X004910Y018500D03*
X004910Y018510D03*
X004910Y018520D03*
X004910Y018530D03*
X004910Y018540D03*
X004910Y018550D03*
X004910Y018560D03*
X004910Y018570D03*
X004910Y018580D03*
X004910Y018590D03*
X004910Y018600D03*
X004910Y018610D03*
X004910Y018620D03*
X004910Y018630D03*
X004910Y018640D03*
X004910Y018650D03*
X004910Y018660D03*
X004910Y018670D03*
X004910Y018680D03*
X004910Y018690D03*
X004910Y018700D03*
X004910Y018710D03*
X004910Y018720D03*
X004910Y018730D03*
X004910Y018740D03*
X004910Y018750D03*
X004910Y018760D03*
X004910Y018770D03*
X004910Y018380D03*
X004910Y018370D03*
X004910Y018360D03*
X004910Y018350D03*
X004910Y018340D03*
X004910Y018330D03*
X004910Y018320D03*
X004910Y018310D03*
X004910Y018300D03*
X004910Y018290D03*
X004910Y018280D03*
X004910Y018090D03*
X004910Y018080D03*
X004910Y018070D03*
X004910Y018060D03*
X004910Y018050D03*
X004910Y018040D03*
X004910Y018030D03*
X004910Y018020D03*
X004910Y018010D03*
X004910Y018000D03*
X004910Y017990D03*
X004910Y017980D03*
X004910Y017970D03*
X004910Y017960D03*
X004910Y017950D03*
X004910Y017940D03*
X004910Y017930D03*
X004910Y017920D03*
X004910Y017910D03*
X004910Y017900D03*
X004910Y017890D03*
X004910Y017880D03*
X004910Y017870D03*
X004910Y017860D03*
X004910Y017850D03*
X004910Y017840D03*
X004140Y017810D03*
X004140Y017800D03*
X004150Y018570D03*
D33*
X005610Y018570D03*
X005610Y017810D03*
X005610Y017800D03*
X006960Y017840D03*
X010680Y017910D03*
X013450Y018500D03*
X016060Y017830D03*
D34*
X006955Y017810D03*
X006955Y017800D03*
D35*
X005575Y018600D03*
X010635Y018170D03*
X010635Y018160D03*
X010755Y017810D03*
X010755Y017800D03*
D36*
X013455Y017800D03*
X013455Y017810D03*
X017275Y017810D03*
X017275Y017800D03*
D37*
X016095Y017800D03*
X016095Y017810D03*
X013455Y017850D03*
X010735Y017830D03*
D38*
X018430Y017810D03*
X018430Y017800D03*
D39*
X018995Y017960D03*
X019005Y017970D03*
X015545Y017960D03*
X015545Y018430D03*
X013895Y018420D03*
X013025Y017960D03*
X011425Y018690D03*
X011425Y018730D03*
X011425Y018740D03*
X011085Y018440D03*
X011085Y018300D03*
X010285Y018110D03*
X010285Y018100D03*
X010285Y017950D03*
X009255Y018690D03*
X009255Y018730D03*
X009255Y018740D03*
X007455Y018190D03*
X007455Y017960D03*
X006505Y018430D03*
X006495Y017950D03*
X006155Y017960D03*
X004155Y017820D03*
D40*
X005625Y017820D03*
X005625Y018560D03*
X013455Y018480D03*
X014765Y018550D03*
X016045Y017840D03*
X018465Y017830D03*
D41*
X016005Y018550D03*
X010745Y017820D03*
X010665Y018190D03*
X006955Y017820D03*
X006835Y018370D03*
D42*
X010795Y018270D03*
X013455Y017820D03*
X016005Y018570D03*
D43*
X016075Y017820D03*
X014795Y018570D03*
X013455Y018510D03*
X013465Y017870D03*
X013465Y017860D03*
X012215Y018520D03*
X012215Y018530D03*
X010715Y017850D03*
X006865Y018360D03*
D44*
X017275Y017820D03*
D45*
X018450Y017820D03*
X010710Y017860D03*
X010710Y017870D03*
X010670Y017920D03*
X010670Y017930D03*
D46*
X010775Y018600D03*
X013885Y017950D03*
X016425Y018430D03*
X016825Y017950D03*
X017695Y017950D03*
X007425Y017950D03*
X007425Y018200D03*
X006145Y017950D03*
X004165Y017830D03*
D47*
X005630Y017830D03*
X015990Y018490D03*
X016030Y017870D03*
X016030Y017860D03*
X018480Y017850D03*
D48*
X019025Y018010D03*
X019025Y018020D03*
X019025Y018580D03*
X019025Y018590D03*
X019025Y018600D03*
X017745Y018000D03*
X017745Y017990D03*
X017745Y017980D03*
X016785Y017980D03*
X016785Y017990D03*
X016785Y018000D03*
X016465Y018370D03*
X016465Y018380D03*
X016455Y018390D03*
X015525Y018400D03*
X015525Y018410D03*
X015505Y018370D03*
X015505Y018360D03*
X015505Y018350D03*
X015505Y018340D03*
X015505Y018330D03*
X015505Y018320D03*
X015505Y018310D03*
X015505Y018300D03*
X015505Y018290D03*
X015505Y018280D03*
X015505Y018270D03*
X015505Y018260D03*
X015505Y018250D03*
X015505Y018240D03*
X015505Y018230D03*
X015505Y018220D03*
X015505Y018210D03*
X015505Y018200D03*
X015505Y018190D03*
X015505Y018180D03*
X015505Y018170D03*
X015505Y018160D03*
X015505Y018150D03*
X015505Y018140D03*
X015505Y018130D03*
X015505Y018120D03*
X015505Y018110D03*
X015505Y018100D03*
X015505Y018090D03*
X015505Y018080D03*
X015505Y018070D03*
X015505Y018060D03*
X015505Y018050D03*
X015505Y018040D03*
X015505Y018030D03*
X015505Y018020D03*
X015525Y018000D03*
X014235Y018390D03*
X014225Y018370D03*
X013925Y018380D03*
X013925Y017990D03*
X013925Y017980D03*
X013005Y018000D03*
X013005Y018390D03*
X012675Y018400D03*
X012675Y018410D03*
X011755Y018410D03*
X011755Y018400D03*
X011415Y018660D03*
X011105Y018320D03*
X010265Y018080D03*
X010265Y017990D03*
X010265Y017980D03*
X010265Y017970D03*
X009245Y018660D03*
X008915Y018660D03*
X008915Y018670D03*
X008915Y018680D03*
X008915Y018690D03*
X008915Y018700D03*
X008915Y018710D03*
X008915Y018720D03*
X008915Y018730D03*
X008915Y018740D03*
X008915Y018750D03*
X008915Y018760D03*
X008915Y018770D03*
X008915Y018780D03*
X008915Y018650D03*
X008915Y018640D03*
X008915Y018630D03*
X008915Y018620D03*
X008915Y018610D03*
X008915Y018600D03*
X008915Y018590D03*
X008915Y018580D03*
X008915Y018570D03*
X008915Y018560D03*
X008915Y018550D03*
X008915Y018540D03*
X008915Y018530D03*
X008915Y018520D03*
X008915Y018510D03*
X008915Y018500D03*
X008915Y018490D03*
X008915Y018480D03*
X008915Y018470D03*
X008915Y018460D03*
X008915Y018450D03*
X008915Y018440D03*
X008915Y018430D03*
X008915Y018420D03*
X008915Y018410D03*
X008915Y018400D03*
X008915Y018390D03*
X008915Y018380D03*
X008915Y018210D03*
X008915Y018200D03*
X008915Y018190D03*
X008915Y018180D03*
X008915Y018170D03*
X008915Y018160D03*
X008915Y018150D03*
X008915Y018140D03*
X008915Y018130D03*
X008915Y018120D03*
X008915Y018110D03*
X008915Y018100D03*
X008915Y018090D03*
X008915Y018080D03*
X008915Y018070D03*
X008915Y018060D03*
X008915Y018050D03*
X008915Y018040D03*
X008915Y018030D03*
X008915Y018020D03*
X008915Y018010D03*
X008915Y018000D03*
X008915Y017990D03*
X008915Y017980D03*
X008915Y017970D03*
X008915Y017960D03*
X008915Y017950D03*
X008915Y017940D03*
X008915Y017930D03*
X008915Y017920D03*
X008915Y017910D03*
X008915Y017900D03*
X008915Y017890D03*
X008915Y017880D03*
X008915Y017870D03*
X008915Y017860D03*
X008915Y017850D03*
X008915Y017840D03*
X008915Y017830D03*
X007795Y017830D03*
X007795Y017840D03*
X007795Y017850D03*
X007795Y017860D03*
X007795Y017870D03*
X007795Y017880D03*
X007795Y017890D03*
X007795Y017900D03*
X007795Y017910D03*
X007795Y017920D03*
X007795Y017930D03*
X007795Y017940D03*
X007795Y017950D03*
X007795Y017960D03*
X007795Y017970D03*
X007795Y017980D03*
X007795Y017990D03*
X007795Y018000D03*
X007795Y018010D03*
X007795Y018020D03*
X007795Y018030D03*
X007795Y018040D03*
X007795Y018050D03*
X007795Y018060D03*
X007795Y018070D03*
X007795Y018080D03*
X007795Y018090D03*
X007795Y018100D03*
X007795Y018110D03*
X007795Y018120D03*
X007795Y018130D03*
X007795Y018140D03*
X007795Y018150D03*
X007795Y018160D03*
X007795Y018170D03*
X007795Y018180D03*
X007795Y018190D03*
X007795Y018200D03*
X007795Y018210D03*
X007795Y018380D03*
X007795Y018390D03*
X007795Y018400D03*
X007795Y018410D03*
X007795Y018420D03*
X007795Y018430D03*
X007795Y018440D03*
X007795Y018450D03*
X007795Y018460D03*
X007795Y018470D03*
X007795Y018480D03*
X007795Y018490D03*
X007795Y018500D03*
X007795Y018510D03*
X007795Y018520D03*
X007795Y018530D03*
X007795Y018540D03*
X007795Y018550D03*
X007795Y018560D03*
X007795Y018570D03*
X007795Y018580D03*
X007795Y018590D03*
X007795Y018600D03*
X007795Y018610D03*
X007795Y018620D03*
X007795Y018630D03*
X007795Y018640D03*
X007795Y018650D03*
X007795Y018660D03*
X007795Y018670D03*
X007795Y018680D03*
X007795Y018690D03*
X007795Y018700D03*
X007795Y018710D03*
X007795Y018720D03*
X007795Y018730D03*
X007795Y018740D03*
X007795Y018750D03*
X007795Y018760D03*
X007795Y018770D03*
X007795Y018780D03*
X007475Y018170D03*
X007475Y018160D03*
X007475Y017990D03*
X007475Y017980D03*
X006475Y017980D03*
X006475Y017990D03*
X006475Y017970D03*
X006185Y018010D03*
X006175Y017990D03*
X006175Y017980D03*
X006175Y018400D03*
X006175Y018410D03*
X006475Y018410D03*
X006475Y018400D03*
D49*
X004175Y017840D03*
X010315Y017940D03*
X015575Y018440D03*
X018965Y018660D03*
D50*
X018495Y017870D03*
X018495Y017860D03*
X017265Y017910D03*
X016015Y017890D03*
X015995Y018460D03*
X015995Y018470D03*
X014735Y018500D03*
X012215Y018450D03*
X005655Y018520D03*
X005655Y018530D03*
X005645Y017840D03*
D51*
X010720Y017840D03*
X017270Y017850D03*
D52*
X017270Y017840D03*
X014820Y018580D03*
X014820Y018590D03*
X013450Y018530D03*
X013450Y018520D03*
X010690Y018210D03*
X010680Y018200D03*
D53*
X012215Y018490D03*
X013455Y018470D03*
X013455Y018460D03*
X013455Y017910D03*
X016035Y017850D03*
X015995Y018500D03*
X018475Y017840D03*
X006965Y017860D03*
X006965Y017870D03*
X005635Y018550D03*
D54*
X006110Y017940D03*
X004190Y017850D03*
X016390Y018440D03*
X016860Y017940D03*
X018950Y017940D03*
D55*
X018500Y017880D03*
X017260Y017920D03*
X017260Y017930D03*
X016010Y017900D03*
X015990Y018450D03*
X014730Y018490D03*
X006970Y017890D03*
X006930Y018300D03*
X005660Y018510D03*
X005650Y017850D03*
D56*
X006960Y017850D03*
X013460Y017890D03*
X013450Y018490D03*
X017270Y017880D03*
D57*
X006790Y018580D03*
X006790Y018590D03*
X004200Y017870D03*
X004200Y017860D03*
D58*
X005655Y017860D03*
X005655Y017870D03*
X005665Y018500D03*
X006935Y018290D03*
X006935Y018280D03*
X014725Y018460D03*
X014725Y018470D03*
X014725Y018480D03*
X016005Y017930D03*
X016005Y017920D03*
X016005Y017910D03*
X018505Y017890D03*
X018515Y017900D03*
X018525Y017910D03*
D59*
X017265Y017870D03*
X017265Y017860D03*
X015995Y018520D03*
X015995Y018530D03*
X013465Y017880D03*
X012215Y018510D03*
X010705Y017880D03*
X010695Y017890D03*
X010695Y017900D03*
D60*
X004620Y018300D03*
X004550Y018330D03*
X004500Y018360D03*
X004430Y018390D03*
X004380Y018420D03*
X004310Y018450D03*
X004260Y018480D03*
X004220Y017880D03*
X018630Y018820D03*
X018630Y018830D03*
X018930Y018670D03*
D61*
X018540Y017930D03*
X018540Y017920D03*
X016000Y017940D03*
X005700Y018450D03*
X005670Y018490D03*
X005670Y017890D03*
X005660Y017880D03*
D62*
X005650Y018540D03*
X006920Y018310D03*
X006970Y017880D03*
X014740Y018510D03*
X015990Y018480D03*
D63*
X016025Y017880D03*
X014745Y018520D03*
X014745Y018530D03*
X013465Y018450D03*
X013465Y017930D03*
X013465Y017920D03*
X012215Y018460D03*
X012215Y018470D03*
X012215Y018480D03*
X017265Y017900D03*
X006915Y018320D03*
D64*
X004825Y018190D03*
X004645Y018280D03*
X004645Y018290D03*
X004595Y018310D03*
X004575Y018320D03*
X004525Y018340D03*
X004525Y018350D03*
X004475Y018370D03*
X004455Y018380D03*
X004405Y018400D03*
X004405Y018410D03*
X004355Y018430D03*
X004335Y018440D03*
X004285Y018460D03*
X004285Y018470D03*
X004615Y018080D03*
X004495Y018020D03*
X004375Y017960D03*
X004255Y017900D03*
X004235Y017890D03*
D65*
X006900Y018330D03*
X013460Y017900D03*
X014760Y018540D03*
X017270Y017890D03*
D66*
X018550Y018220D03*
X018550Y018230D03*
X018550Y018370D03*
X006970Y017910D03*
X006950Y018260D03*
X005680Y018480D03*
X005680Y017900D03*
D67*
X005685Y017910D03*
X005695Y017920D03*
X005695Y017930D03*
X005685Y018460D03*
X005685Y018470D03*
X006945Y018270D03*
X006965Y017900D03*
X014715Y018450D03*
D68*
X010820Y018580D03*
X010820Y018590D03*
X004820Y018200D03*
X004640Y018090D03*
X004590Y018070D03*
X004570Y018060D03*
X004540Y018050D03*
X004540Y018040D03*
X004520Y018030D03*
X004470Y018010D03*
X004450Y018000D03*
X004420Y017990D03*
X004420Y017980D03*
X004400Y017970D03*
X004350Y017950D03*
X004330Y017940D03*
X004300Y017930D03*
X004300Y017920D03*
X004280Y017910D03*
D69*
X006965Y017920D03*
X006965Y017930D03*
X006955Y018250D03*
X018545Y018240D03*
D70*
X018980Y017950D03*
X013880Y018430D03*
X013050Y017950D03*
X012630Y018440D03*
X011800Y018440D03*
X010300Y018120D03*
X006520Y017940D03*
X004180Y018540D03*
D71*
X006120Y018440D03*
X007410Y017940D03*
X013060Y018440D03*
X015580Y017950D03*
D72*
X013855Y017940D03*
X013845Y018440D03*
X013075Y017940D03*
X017665Y017940D03*
X004205Y018510D03*
D73*
X006170Y017970D03*
X006480Y017960D03*
X006840Y018600D03*
X009250Y018670D03*
X009250Y018760D03*
X009250Y018770D03*
X010270Y018090D03*
X010270Y017960D03*
X011100Y018310D03*
X011100Y018430D03*
X011420Y018670D03*
X011420Y018760D03*
X011420Y018770D03*
X011760Y018420D03*
X012670Y018420D03*
X013010Y018410D03*
X013010Y018400D03*
X013010Y017990D03*
X013010Y017980D03*
X013920Y018390D03*
X014240Y018400D03*
X014240Y018410D03*
X015530Y017990D03*
X015530Y017980D03*
X016450Y018400D03*
X016450Y018410D03*
X016800Y017970D03*
X017720Y017970D03*
X019020Y017980D03*
X019020Y017990D03*
X019020Y018000D03*
X019020Y018610D03*
D74*
X018990Y018640D03*
X018990Y018650D03*
X014260Y018430D03*
X013900Y017960D03*
X013040Y018430D03*
X011420Y018700D03*
X011420Y018710D03*
X011420Y018720D03*
X009250Y018720D03*
X009250Y018710D03*
X009250Y018700D03*
X006150Y018430D03*
X004170Y018550D03*
D75*
X006165Y018420D03*
X006485Y018420D03*
X007465Y018180D03*
X007465Y017970D03*
X009245Y018680D03*
X009245Y018750D03*
X011415Y018750D03*
X011415Y018680D03*
X011775Y018430D03*
X013015Y018420D03*
X013015Y017970D03*
X013915Y017970D03*
X013915Y018400D03*
X013915Y018410D03*
X015535Y018420D03*
X015535Y017970D03*
X016445Y018420D03*
X016805Y017960D03*
X017715Y017960D03*
X019015Y018620D03*
D76*
X010855Y018550D03*
X004755Y018120D03*
D77*
X004765Y018130D03*
X010845Y018560D03*
D78*
X004780Y018140D03*
D79*
X004790Y018150D03*
X018660Y018810D03*
D80*
X006770Y018570D03*
X004800Y018170D03*
X004800Y018160D03*
D81*
X004815Y018180D03*
D82*
X004810Y018210D03*
D83*
X004195Y018520D03*
X004195Y018530D03*
X006535Y018440D03*
X007405Y018210D03*
X011055Y018280D03*
X011055Y018290D03*
X014295Y018440D03*
D84*
X010835Y018570D03*
X004795Y018230D03*
X004795Y018220D03*
D85*
X006960Y018220D03*
X006960Y018230D03*
X006960Y018240D03*
X018540Y018250D03*
X018540Y018340D03*
X018540Y018350D03*
X018540Y018360D03*
D86*
X008355Y018360D03*
X008355Y018370D03*
X008355Y018350D03*
X008355Y018340D03*
X008355Y018330D03*
X008355Y018320D03*
X008355Y018310D03*
X008355Y018300D03*
X008355Y018290D03*
X008355Y018280D03*
X008355Y018270D03*
X008355Y018260D03*
X008355Y018250D03*
X008355Y018240D03*
X008355Y018230D03*
X008355Y018220D03*
D87*
X010710Y018220D03*
X010710Y018230D03*
X013450Y018540D03*
D88*
X006755Y018560D03*
X004785Y018240D03*
D89*
X010720Y018240D03*
X010740Y018250D03*
D90*
X006730Y018540D03*
X004760Y018260D03*
X018680Y018800D03*
D91*
X018535Y018330D03*
X018535Y018320D03*
X018535Y018310D03*
X018535Y018300D03*
X018535Y018290D03*
X018535Y018280D03*
X018535Y018270D03*
X018535Y018260D03*
D92*
X018690Y018790D03*
X004750Y018270D03*
D93*
X006885Y018340D03*
X006885Y018350D03*
X012215Y018500D03*
X014775Y018560D03*
X015995Y018510D03*
D94*
X014250Y018420D03*
X012660Y018430D03*
X019000Y018630D03*
X004160Y018560D03*
D95*
X006665Y018450D03*
X006685Y018480D03*
X006705Y018500D03*
X010875Y018520D03*
X010875Y018530D03*
X012215Y018600D03*
D96*
X010920Y018450D03*
X010880Y018510D03*
X006700Y018490D03*
X018710Y018780D03*
D97*
X016005Y018600D03*
X010885Y018500D03*
X006675Y018470D03*
X006675Y018460D03*
D98*
X010910Y018460D03*
X010910Y018470D03*
X010910Y018480D03*
X018710Y018760D03*
X018710Y018770D03*
D99*
X013445Y018590D03*
X013445Y018580D03*
X009775Y018570D03*
X009775Y018560D03*
X009775Y018480D03*
D100*
X004245Y018490D03*
X004225Y018500D03*
D101*
X009770Y018490D03*
D102*
X010895Y018490D03*
D103*
X009775Y018500D03*
X009775Y018510D03*
X009775Y018520D03*
X009775Y018530D03*
X009775Y018540D03*
X009775Y018550D03*
D104*
X006715Y018530D03*
X006715Y018520D03*
D105*
X013450Y018560D03*
D106*
X013445Y018570D03*
D107*
X009775Y018580D03*
X009775Y018590D03*
X018755Y018700D03*
X018755Y018710D03*
D108*
X012215Y018590D03*
X012215Y018580D03*
D109*
X016005Y018580D03*
X016005Y018590D03*
D110*
X004130Y018600D03*
D111*
X009245Y018600D03*
X009885Y018810D03*
X011415Y018600D03*
D112*
X011420Y018630D03*
X009250Y018630D03*
X016780Y018600D03*
X017740Y018600D03*
D113*
X011415Y018610D03*
X009245Y018610D03*
D114*
X018740Y018730D03*
X018750Y018720D03*
X018760Y018690D03*
X018770Y018680D03*
D115*
X018720Y018750D03*
D116*
X011420Y018800D03*
X009250Y018800D03*
D117*
X009550Y010600D02*
X008750Y010600D01*
X008733Y010598D01*
X008716Y010594D01*
X008700Y010587D01*
X008686Y010577D01*
X008673Y010564D01*
X008663Y010550D01*
X008656Y010534D01*
X008652Y010517D01*
X008650Y010500D01*
X008650Y007800D01*
X008652Y007783D01*
X008656Y007766D01*
X008663Y007750D01*
X008673Y007736D01*
X008686Y007723D01*
X008700Y007713D01*
X008716Y007706D01*
X008733Y007702D01*
X008750Y007700D01*
X009550Y007700D01*
X009567Y007702D01*
X009584Y007706D01*
X009600Y007713D01*
X009614Y007723D01*
X009627Y007736D01*
X009637Y007750D01*
X009644Y007766D01*
X009648Y007783D01*
X009650Y007800D01*
X009650Y010500D01*
X009648Y010517D01*
X009644Y010534D01*
X009637Y010550D01*
X009627Y010564D01*
X009614Y010577D01*
X009600Y010587D01*
X009584Y010594D01*
X009567Y010598D01*
X009550Y010600D01*
X009150Y009750D02*
X009150Y009270D01*
X009150Y009020D02*
X009150Y008550D01*
X010650Y007800D02*
X010650Y010500D01*
X010652Y010517D01*
X010656Y010534D01*
X010663Y010550D01*
X010673Y010564D01*
X010686Y010577D01*
X010700Y010587D01*
X010716Y010594D01*
X010733Y010598D01*
X010750Y010600D01*
X011550Y010600D01*
X011567Y010598D01*
X011584Y010594D01*
X011600Y010587D01*
X011614Y010577D01*
X011627Y010564D01*
X011637Y010550D01*
X011644Y010534D01*
X011648Y010517D01*
X011650Y010500D01*
X011650Y007800D01*
X011648Y007783D01*
X011644Y007766D01*
X011637Y007750D01*
X011627Y007736D01*
X011614Y007723D01*
X011600Y007713D01*
X011584Y007706D01*
X011567Y007702D01*
X011550Y007700D01*
X010750Y007700D01*
X010733Y007702D01*
X010716Y007706D01*
X010700Y007713D01*
X010686Y007723D01*
X010673Y007736D01*
X010663Y007750D01*
X010656Y007766D01*
X010652Y007783D01*
X010650Y007800D01*
X011150Y008550D02*
X011150Y009020D01*
X011150Y009270D02*
X011150Y009750D01*
X013500Y009700D02*
X013650Y009700D01*
X013700Y009750D01*
X015600Y009750D01*
X015650Y009700D01*
X015800Y009700D01*
X015817Y009702D01*
X015834Y009706D01*
X015850Y009713D01*
X015864Y009723D01*
X015877Y009736D01*
X015887Y009750D01*
X015894Y009766D01*
X015898Y009783D01*
X015900Y009800D01*
X015900Y010500D02*
X015898Y010517D01*
X015894Y010534D01*
X015887Y010550D01*
X015877Y010564D01*
X015864Y010577D01*
X015850Y010587D01*
X015834Y010594D01*
X015817Y010598D01*
X015800Y010600D01*
X015650Y010600D01*
X015600Y010550D01*
X013700Y010550D01*
X013650Y010600D01*
X013500Y010600D01*
X013483Y010598D01*
X013466Y010594D01*
X013450Y010587D01*
X013436Y010577D01*
X013423Y010564D01*
X013413Y010550D01*
X013406Y010534D01*
X013402Y010517D01*
X013400Y010500D01*
X013400Y009800D02*
X013402Y009783D01*
X013406Y009766D01*
X013413Y009750D01*
X013423Y009736D01*
X013436Y009723D01*
X013450Y009713D01*
X013466Y009706D01*
X013483Y009702D01*
X013500Y009700D01*
X013500Y008600D02*
X013650Y008600D01*
X013700Y008550D01*
X015600Y008550D01*
X015650Y008600D01*
X015800Y008600D01*
X015817Y008598D01*
X015834Y008594D01*
X015850Y008587D01*
X015864Y008577D01*
X015877Y008564D01*
X015887Y008550D01*
X015894Y008534D01*
X015898Y008517D01*
X015900Y008500D01*
X015900Y007800D02*
X015898Y007783D01*
X015894Y007766D01*
X015887Y007750D01*
X015877Y007736D01*
X015864Y007723D01*
X015850Y007713D01*
X015834Y007706D01*
X015817Y007702D01*
X015800Y007700D01*
X015650Y007700D01*
X015600Y007750D01*
X013700Y007750D01*
X013650Y007700D01*
X013500Y007700D01*
X013483Y007702D01*
X013466Y007706D01*
X013450Y007713D01*
X013436Y007723D01*
X013423Y007736D01*
X013413Y007750D01*
X013406Y007766D01*
X013402Y007783D01*
X013400Y007800D01*
X013400Y008500D02*
X013402Y008517D01*
X013406Y008534D01*
X013413Y008550D01*
X013423Y008564D01*
X013436Y008577D01*
X013450Y008587D01*
X013466Y008594D01*
X013483Y008598D01*
X013500Y008600D01*
X006800Y008600D02*
X006650Y008600D01*
X006600Y008550D01*
X004700Y008550D01*
X004650Y008600D01*
X004500Y008600D01*
X004483Y008598D01*
X004466Y008594D01*
X004450Y008587D01*
X004436Y008577D01*
X004423Y008564D01*
X004413Y008550D01*
X004406Y008534D01*
X004402Y008517D01*
X004400Y008500D01*
X004400Y007800D02*
X004402Y007783D01*
X004406Y007766D01*
X004413Y007750D01*
X004423Y007736D01*
X004436Y007723D01*
X004450Y007713D01*
X004466Y007706D01*
X004483Y007702D01*
X004500Y007700D01*
X004650Y007700D01*
X004700Y007750D01*
X006600Y007750D01*
X006650Y007700D01*
X006800Y007700D01*
X006817Y007702D01*
X006834Y007706D01*
X006850Y007713D01*
X006864Y007723D01*
X006877Y007736D01*
X006887Y007750D01*
X006894Y007766D01*
X006898Y007783D01*
X006900Y007800D01*
X006900Y008500D02*
X006898Y008517D01*
X006894Y008534D01*
X006887Y008550D01*
X006877Y008564D01*
X006864Y008577D01*
X006850Y008587D01*
X006834Y008594D01*
X006817Y008598D01*
X006800Y008600D01*
X006800Y009700D02*
X006650Y009700D01*
X006600Y009750D01*
X004700Y009750D01*
X004650Y009700D01*
X004500Y009700D01*
X004483Y009702D01*
X004466Y009706D01*
X004450Y009713D01*
X004436Y009723D01*
X004423Y009736D01*
X004413Y009750D01*
X004406Y009766D01*
X004402Y009783D01*
X004400Y009800D01*
X004400Y010500D02*
X004402Y010517D01*
X004406Y010534D01*
X004413Y010550D01*
X004423Y010564D01*
X004436Y010577D01*
X004450Y010587D01*
X004466Y010594D01*
X004483Y010598D01*
X004500Y010600D01*
X004650Y010600D01*
X004700Y010550D01*
X006600Y010550D01*
X006650Y010600D01*
X006800Y010600D01*
X006817Y010598D01*
X006834Y010594D01*
X006850Y010587D01*
X006864Y010577D01*
X006877Y010564D01*
X006887Y010550D01*
X006894Y010534D01*
X006898Y010517D01*
X006900Y010500D01*
X006900Y009800D02*
X006898Y009783D01*
X006894Y009766D01*
X006887Y009750D01*
X006877Y009736D01*
X006864Y009723D01*
X006850Y009713D01*
X006834Y009706D01*
X006817Y009702D01*
X006800Y009700D01*
D118*
X008900Y009270D02*
X009150Y009270D01*
X009400Y009270D01*
X009400Y009020D02*
X009150Y009020D01*
X008900Y009020D01*
X010900Y009020D02*
X011150Y009020D01*
X011400Y009020D01*
X011400Y009270D02*
X011150Y009270D01*
X010900Y009270D01*
M02*
