G75*
G70*
%OFA0B0*%
%FSLAX24Y24*%
%IPPOS*%
%LPD*%
%AMOC8*
5,1,8,0,0,1.08239X$1,22.5*
%
%ADD10OC8,0.0520*%
%ADD11OC8,0.0594*%
%ADD12C,0.0100*%
D10*
X004150Y008150D03*
X004150Y010150D03*
X007150Y010150D03*
X007150Y008150D03*
X009150Y008150D03*
X009150Y010150D03*
X011150Y010150D03*
X011150Y008150D03*
X013150Y008150D03*
X013150Y010150D03*
X016150Y010150D03*
X016150Y008150D03*
D11*
X018150Y007650D03*
X018150Y006650D03*
X018150Y005650D03*
X018150Y004650D03*
X019150Y004650D03*
X019150Y005650D03*
X019150Y006650D03*
X019150Y007650D03*
X019150Y008650D03*
X019150Y009650D03*
X019150Y010650D03*
X019150Y011650D03*
X019150Y012650D03*
X019150Y013650D03*
X018150Y013650D03*
X018150Y012650D03*
X018150Y011650D03*
X018150Y010650D03*
X018150Y009650D03*
X018150Y008650D03*
X002150Y008650D03*
X002150Y009650D03*
X002150Y010650D03*
X002150Y011650D03*
X002150Y012650D03*
X002150Y013650D03*
X001150Y013650D03*
X001150Y012650D03*
X001150Y011650D03*
X001150Y010650D03*
X001150Y009650D03*
X001150Y008650D03*
X001150Y007650D03*
X001150Y006650D03*
X001150Y005650D03*
X001150Y004650D03*
X002150Y004650D03*
X002150Y005650D03*
X002150Y006650D03*
X002150Y007650D03*
D12*
X000600Y004370D02*
X000600Y002156D01*
X000775Y002330D01*
X001025Y002475D01*
X001305Y002550D01*
X001595Y002550D01*
X001875Y002475D01*
X002125Y002330D01*
X002330Y002125D01*
X002475Y001875D01*
X002550Y001595D01*
X002550Y001305D01*
X002475Y001025D01*
X002330Y000775D01*
X002156Y000600D01*
X018144Y000600D01*
X017970Y000775D01*
X017825Y001025D01*
X017750Y001305D01*
X017750Y001595D01*
X017825Y001875D01*
X017970Y002125D01*
X018175Y002330D01*
X018425Y002475D01*
X018705Y002550D01*
X018995Y002550D01*
X019275Y002475D01*
X019525Y002330D01*
X019700Y002156D01*
X019700Y004370D01*
X019393Y004063D01*
X018907Y004063D01*
X018650Y004320D01*
X018393Y004063D01*
X017907Y004063D01*
X017563Y004407D01*
X017563Y004893D01*
X017820Y005150D01*
X017563Y005407D01*
X017563Y005893D01*
X017820Y006150D01*
X017563Y006407D01*
X017563Y006893D01*
X017820Y007150D01*
X017563Y007407D01*
X017563Y007893D01*
X017820Y008150D01*
X017563Y008407D01*
X017563Y008893D01*
X017820Y009150D01*
X017563Y009407D01*
X017563Y009893D01*
X017820Y010150D01*
X017563Y010407D01*
X017563Y010893D01*
X017820Y011150D01*
X017563Y011407D01*
X017563Y011893D01*
X017820Y012150D01*
X017563Y012407D01*
X017563Y012893D01*
X017820Y013150D01*
X017563Y013407D01*
X017563Y013893D01*
X017907Y014237D01*
X018393Y014237D01*
X018650Y013980D01*
X018907Y014237D01*
X019393Y014237D01*
X019700Y013930D01*
X019700Y024144D01*
X019525Y023970D01*
X019275Y023825D01*
X018995Y023750D01*
X018705Y023750D01*
X018425Y023825D01*
X018175Y023970D01*
X017970Y024175D01*
X017825Y024425D01*
X017750Y024705D01*
X017750Y024995D01*
X017825Y025275D01*
X017970Y025525D01*
X018144Y025700D01*
X002156Y025700D01*
X002330Y025525D01*
X002475Y025275D01*
X002550Y024995D01*
X002550Y024705D01*
X002475Y024425D01*
X002330Y024175D01*
X002125Y023970D01*
X001875Y023825D01*
X001595Y023750D01*
X001305Y023750D01*
X001025Y023825D01*
X000775Y023970D01*
X000600Y024144D01*
X000600Y012930D01*
X000907Y013237D01*
X000931Y013237D01*
X000703Y013465D01*
X000703Y013602D01*
X001102Y013602D01*
X001102Y013698D01*
X000703Y013698D01*
X000703Y013835D01*
X000965Y014097D01*
X001102Y014097D01*
X001102Y013698D01*
X001198Y013698D01*
X001198Y014097D01*
X001335Y014097D01*
X001563Y013869D01*
X001563Y013893D01*
X001907Y014237D01*
X002393Y014237D01*
X002737Y013893D01*
X002737Y013407D01*
X002480Y013150D01*
X002737Y012893D01*
X002737Y012407D01*
X002480Y012150D01*
X002737Y011893D01*
X002737Y011407D01*
X002480Y011150D01*
X002737Y010893D01*
X002737Y010407D01*
X002480Y010150D01*
X002737Y009893D01*
X002737Y009407D01*
X002480Y009150D01*
X002737Y008893D01*
X002737Y008407D01*
X002480Y008150D01*
X002737Y007893D01*
X002737Y007407D01*
X002480Y007150D01*
X002500Y007130D01*
X003209Y007130D01*
X003462Y007383D01*
X003462Y007383D01*
X003557Y007478D01*
X003682Y007530D01*
X005769Y007530D01*
X006582Y008343D01*
X006600Y008361D01*
X006600Y008378D01*
X006922Y008700D01*
X007378Y008700D01*
X007700Y008378D01*
X007700Y007922D01*
X007378Y007600D01*
X006922Y007600D01*
X006862Y007661D01*
X006103Y006902D01*
X006074Y006890D01*
X007129Y006890D01*
X008582Y008343D01*
X008600Y008361D01*
X008600Y008378D01*
X008922Y008700D01*
X009378Y008700D01*
X009700Y008378D01*
X009700Y008121D01*
X010291Y007530D01*
X011769Y007530D01*
X012582Y008343D01*
X012600Y008361D01*
X012600Y008378D01*
X012922Y008700D01*
X013378Y008700D01*
X013700Y008378D01*
X013700Y007922D01*
X013378Y007600D01*
X012922Y007600D01*
X012862Y007661D01*
X012103Y006902D01*
X011978Y006850D01*
X010082Y006850D01*
X009957Y006902D01*
X009862Y006997D01*
X009259Y007600D01*
X008922Y007600D01*
X008862Y007661D01*
X007463Y006262D01*
X007338Y006210D01*
X003171Y006210D01*
X002737Y005776D01*
X002737Y005407D01*
X002480Y005150D01*
X002737Y004893D01*
X002737Y004407D01*
X002393Y004063D01*
X001907Y004063D01*
X001650Y004320D01*
X001393Y004063D01*
X000907Y004063D01*
X000600Y004370D01*
X000600Y004287D02*
X000683Y004287D01*
X000600Y004189D02*
X000782Y004189D01*
X000880Y004090D02*
X000600Y004090D01*
X000600Y003992D02*
X019700Y003992D01*
X019700Y004090D02*
X019420Y004090D01*
X019518Y004189D02*
X019700Y004189D01*
X019700Y004287D02*
X019617Y004287D01*
X019700Y003893D02*
X000600Y003893D01*
X000600Y003795D02*
X019700Y003795D01*
X019700Y003696D02*
X000600Y003696D01*
X000600Y003598D02*
X019700Y003598D01*
X019700Y003499D02*
X000600Y003499D01*
X000600Y003401D02*
X019700Y003401D01*
X019700Y003302D02*
X000600Y003302D01*
X000600Y003204D02*
X019700Y003204D01*
X019700Y003105D02*
X000600Y003105D01*
X000600Y003007D02*
X019700Y003007D01*
X019700Y002908D02*
X000600Y002908D01*
X000600Y002810D02*
X019700Y002810D01*
X019700Y002711D02*
X000600Y002711D01*
X000600Y002613D02*
X019700Y002613D01*
X019700Y002514D02*
X019129Y002514D01*
X019378Y002416D02*
X019700Y002416D01*
X019700Y002317D02*
X019539Y002317D01*
X019637Y002219D02*
X019700Y002219D01*
X018571Y002514D02*
X001729Y002514D01*
X001978Y002416D02*
X018322Y002416D01*
X018161Y002317D02*
X002139Y002317D01*
X002237Y002219D02*
X018063Y002219D01*
X017967Y002120D02*
X002333Y002120D01*
X002390Y002022D02*
X017910Y002022D01*
X017853Y001923D02*
X002447Y001923D01*
X002488Y001825D02*
X017812Y001825D01*
X017785Y001726D02*
X002515Y001726D01*
X002541Y001628D02*
X017759Y001628D01*
X017750Y001529D02*
X002550Y001529D01*
X002550Y001431D02*
X017750Y001431D01*
X017750Y001332D02*
X002550Y001332D01*
X002531Y001234D02*
X017769Y001234D01*
X017796Y001135D02*
X002504Y001135D01*
X002478Y001037D02*
X017822Y001037D01*
X017875Y000938D02*
X002425Y000938D01*
X002368Y000840D02*
X017932Y000840D01*
X018003Y000741D02*
X002297Y000741D01*
X002198Y000643D02*
X018102Y000643D01*
X017880Y004090D02*
X002420Y004090D01*
X002518Y004189D02*
X017782Y004189D01*
X017683Y004287D02*
X002617Y004287D01*
X002715Y004386D02*
X017585Y004386D01*
X017563Y004484D02*
X002737Y004484D01*
X002737Y004583D02*
X017563Y004583D01*
X017563Y004681D02*
X002737Y004681D01*
X002737Y004780D02*
X017563Y004780D01*
X017563Y004878D02*
X002737Y004878D01*
X002653Y004977D02*
X017647Y004977D01*
X017745Y005075D02*
X002555Y005075D01*
X002503Y005174D02*
X017797Y005174D01*
X017698Y005272D02*
X002602Y005272D01*
X002700Y005371D02*
X017600Y005371D01*
X017563Y005469D02*
X002737Y005469D01*
X002737Y005568D02*
X017563Y005568D01*
X017563Y005666D02*
X002737Y005666D01*
X002737Y005765D02*
X017563Y005765D01*
X017563Y005863D02*
X002824Y005863D01*
X002922Y005962D02*
X017632Y005962D01*
X017730Y006060D02*
X003021Y006060D01*
X003119Y006159D02*
X017812Y006159D01*
X017713Y006257D02*
X007451Y006257D01*
X007556Y006356D02*
X017615Y006356D01*
X017563Y006454D02*
X007655Y006454D01*
X007753Y006553D02*
X017563Y006553D01*
X017563Y006651D02*
X007852Y006651D01*
X007950Y006750D02*
X017563Y006750D01*
X017563Y006848D02*
X008049Y006848D01*
X008147Y006947D02*
X009913Y006947D01*
X009814Y007045D02*
X008246Y007045D01*
X008344Y007144D02*
X009716Y007144D01*
X009617Y007242D02*
X008443Y007242D01*
X008541Y007341D02*
X009519Y007341D01*
X009420Y007439D02*
X008640Y007439D01*
X008738Y007538D02*
X009322Y007538D01*
X008886Y007636D02*
X008837Y007636D01*
X008870Y008150D02*
X009150Y008150D01*
X009190Y008150D01*
X010150Y007190D01*
X011910Y007190D01*
X012870Y008150D01*
X013150Y008150D01*
X012843Y008621D02*
X011457Y008621D01*
X011378Y008700D02*
X010922Y008700D01*
X010600Y008378D01*
X010600Y007922D01*
X010922Y007600D01*
X011378Y007600D01*
X011700Y007922D01*
X011700Y008378D01*
X011378Y008700D01*
X011555Y008523D02*
X012745Y008523D01*
X012646Y008424D02*
X011654Y008424D01*
X011700Y008326D02*
X012565Y008326D01*
X012466Y008227D02*
X011700Y008227D01*
X011700Y008129D02*
X012368Y008129D01*
X012269Y008030D02*
X011700Y008030D01*
X011700Y007932D02*
X012171Y007932D01*
X012072Y007833D02*
X011611Y007833D01*
X011512Y007735D02*
X011974Y007735D01*
X011875Y007636D02*
X011414Y007636D01*
X011777Y007538D02*
X010283Y007538D01*
X010185Y007636D02*
X010886Y007636D01*
X010788Y007735D02*
X010086Y007735D01*
X009988Y007833D02*
X010689Y007833D01*
X010600Y007932D02*
X009889Y007932D01*
X009791Y008030D02*
X010600Y008030D01*
X010600Y008129D02*
X009700Y008129D01*
X009700Y008227D02*
X010600Y008227D01*
X010600Y008326D02*
X009700Y008326D01*
X009654Y008424D02*
X010646Y008424D01*
X010745Y008523D02*
X009555Y008523D01*
X009457Y008621D02*
X010843Y008621D01*
X010922Y009600D02*
X011378Y009600D01*
X011700Y009922D01*
X011700Y010378D01*
X011378Y010700D01*
X010922Y010700D01*
X010600Y010378D01*
X010600Y009922D01*
X010922Y009600D01*
X010916Y009606D02*
X009384Y009606D01*
X009378Y009600D02*
X009700Y009922D01*
X009700Y010378D01*
X009378Y010700D01*
X008922Y010700D01*
X008600Y010378D01*
X008600Y009922D01*
X008922Y009600D01*
X009378Y009600D01*
X009482Y009705D02*
X010818Y009705D01*
X010719Y009803D02*
X009581Y009803D01*
X009679Y009902D02*
X010621Y009902D01*
X010600Y010000D02*
X009700Y010000D01*
X009700Y010099D02*
X010600Y010099D01*
X010600Y010197D02*
X009700Y010197D01*
X009700Y010296D02*
X010600Y010296D01*
X010616Y010394D02*
X009684Y010394D01*
X009585Y010493D02*
X010715Y010493D01*
X010813Y010591D02*
X009487Y010591D01*
X009388Y010690D02*
X010912Y010690D01*
X011388Y010690D02*
X012912Y010690D01*
X012922Y010700D02*
X012600Y010378D01*
X012600Y009922D01*
X012922Y009600D01*
X013378Y009600D01*
X013700Y009922D01*
X013700Y010378D01*
X013378Y010700D01*
X012922Y010700D01*
X012813Y010591D02*
X011487Y010591D01*
X011585Y010493D02*
X012715Y010493D01*
X012616Y010394D02*
X011684Y010394D01*
X011700Y010296D02*
X012600Y010296D01*
X012600Y010197D02*
X011700Y010197D01*
X011700Y010099D02*
X012600Y010099D01*
X012600Y010000D02*
X011700Y010000D01*
X011679Y009902D02*
X012621Y009902D01*
X012719Y009803D02*
X011581Y009803D01*
X011482Y009705D02*
X012818Y009705D01*
X012916Y009606D02*
X011384Y009606D01*
X012837Y007636D02*
X012886Y007636D01*
X012738Y007538D02*
X017563Y007538D01*
X017563Y007636D02*
X013414Y007636D01*
X013512Y007735D02*
X017563Y007735D01*
X017563Y007833D02*
X016413Y007833D01*
X016320Y007740D02*
X016180Y007740D01*
X016180Y008120D01*
X016180Y008180D01*
X016560Y008180D01*
X016560Y008320D01*
X016320Y008560D01*
X016180Y008560D01*
X016180Y008180D01*
X016120Y008180D01*
X016120Y008560D01*
X015980Y008560D01*
X015740Y008320D01*
X015740Y008180D01*
X016120Y008180D01*
X016120Y008120D01*
X016180Y008120D01*
X016560Y008120D01*
X016560Y007980D01*
X016320Y007740D01*
X016180Y007833D02*
X016120Y007833D01*
X016120Y007740D02*
X015980Y007740D01*
X015740Y007980D01*
X015740Y008120D01*
X016120Y008120D01*
X016120Y007740D01*
X016120Y007932D02*
X016180Y007932D01*
X016180Y008030D02*
X016120Y008030D01*
X016120Y008129D02*
X013700Y008129D01*
X013700Y008227D02*
X015740Y008227D01*
X015746Y008326D02*
X013700Y008326D01*
X013654Y008424D02*
X015844Y008424D01*
X015943Y008523D02*
X013555Y008523D01*
X013457Y008621D02*
X017563Y008621D01*
X017563Y008523D02*
X016357Y008523D01*
X016456Y008424D02*
X017563Y008424D01*
X017645Y008326D02*
X016554Y008326D01*
X016560Y008227D02*
X017743Y008227D01*
X017799Y008129D02*
X016180Y008129D01*
X016180Y008227D02*
X016120Y008227D01*
X016120Y008326D02*
X016180Y008326D01*
X016180Y008424D02*
X016120Y008424D01*
X016120Y008523D02*
X016180Y008523D01*
X016560Y008030D02*
X017700Y008030D01*
X017602Y007932D02*
X016511Y007932D01*
X015887Y007833D02*
X013611Y007833D01*
X013700Y007932D02*
X015789Y007932D01*
X015740Y008030D02*
X013700Y008030D01*
X012640Y007439D02*
X017563Y007439D01*
X017630Y007341D02*
X012541Y007341D01*
X012443Y007242D02*
X017728Y007242D01*
X017814Y007144D02*
X012344Y007144D01*
X012246Y007045D02*
X017715Y007045D01*
X017617Y006947D02*
X012147Y006947D01*
X013384Y009606D02*
X015916Y009606D01*
X015922Y009600D02*
X016378Y009600D01*
X016700Y009922D01*
X016700Y010378D01*
X016378Y010700D01*
X015922Y010700D01*
X015600Y010378D01*
X015600Y009922D01*
X015922Y009600D01*
X015818Y009705D02*
X013482Y009705D01*
X013581Y009803D02*
X015719Y009803D01*
X015621Y009902D02*
X013679Y009902D01*
X013700Y010000D02*
X015600Y010000D01*
X015600Y010099D02*
X013700Y010099D01*
X013700Y010197D02*
X015600Y010197D01*
X015600Y010296D02*
X013700Y010296D01*
X013684Y010394D02*
X015616Y010394D01*
X015715Y010493D02*
X013585Y010493D01*
X013487Y010591D02*
X015813Y010591D01*
X015912Y010690D02*
X013388Y010690D01*
X016388Y010690D02*
X017563Y010690D01*
X017563Y010788D02*
X002737Y010788D01*
X002737Y010690D02*
X006912Y010690D01*
X006922Y010700D02*
X006600Y010378D01*
X006600Y009922D01*
X006922Y009600D01*
X007378Y009600D01*
X007700Y009922D01*
X007700Y010378D01*
X007378Y010700D01*
X006922Y010700D01*
X006813Y010591D02*
X002737Y010591D01*
X002737Y010493D02*
X003913Y010493D01*
X003980Y010560D02*
X003740Y010320D01*
X003740Y010180D01*
X004120Y010180D01*
X004120Y010560D01*
X003980Y010560D01*
X004120Y010493D02*
X004180Y010493D01*
X004180Y010560D02*
X004180Y010180D01*
X004560Y010180D01*
X004560Y010320D01*
X004320Y010560D01*
X004180Y010560D01*
X004180Y010394D02*
X004120Y010394D01*
X004120Y010296D02*
X004180Y010296D01*
X004180Y010197D02*
X004120Y010197D01*
X004120Y010180D02*
X004180Y010180D01*
X004180Y010120D01*
X004560Y010120D01*
X004560Y009980D01*
X004320Y009740D01*
X004180Y009740D01*
X004180Y010120D01*
X004120Y010120D01*
X004120Y009740D01*
X003980Y009740D01*
X003740Y009980D01*
X003740Y010120D01*
X004120Y010120D01*
X004120Y010180D01*
X004120Y010099D02*
X004180Y010099D01*
X004180Y010000D02*
X004120Y010000D01*
X004120Y009902D02*
X004180Y009902D01*
X004180Y009803D02*
X004120Y009803D01*
X003917Y009803D02*
X002737Y009803D01*
X002737Y009705D02*
X006818Y009705D01*
X006719Y009803D02*
X004383Y009803D01*
X004481Y009902D02*
X006621Y009902D01*
X006600Y010000D02*
X004560Y010000D01*
X004560Y010099D02*
X006600Y010099D01*
X006600Y010197D02*
X004560Y010197D01*
X004560Y010296D02*
X006600Y010296D01*
X006616Y010394D02*
X004486Y010394D01*
X004387Y010493D02*
X006715Y010493D01*
X007388Y010690D02*
X008912Y010690D01*
X008813Y010591D02*
X007487Y010591D01*
X007585Y010493D02*
X008715Y010493D01*
X008616Y010394D02*
X007684Y010394D01*
X007700Y010296D02*
X008600Y010296D01*
X008600Y010197D02*
X007700Y010197D01*
X007700Y010099D02*
X008600Y010099D01*
X008600Y010000D02*
X007700Y010000D01*
X007679Y009902D02*
X008621Y009902D01*
X008719Y009803D02*
X007581Y009803D01*
X007482Y009705D02*
X008818Y009705D01*
X008916Y009606D02*
X007384Y009606D01*
X006916Y009606D02*
X002737Y009606D01*
X002737Y009508D02*
X017563Y009508D01*
X017563Y009606D02*
X016384Y009606D01*
X016482Y009705D02*
X017563Y009705D01*
X017563Y009803D02*
X016581Y009803D01*
X016679Y009902D02*
X017572Y009902D01*
X017670Y010000D02*
X016700Y010000D01*
X016700Y010099D02*
X017769Y010099D01*
X017773Y010197D02*
X016700Y010197D01*
X016700Y010296D02*
X017675Y010296D01*
X017576Y010394D02*
X016684Y010394D01*
X016585Y010493D02*
X017563Y010493D01*
X017563Y010591D02*
X016487Y010591D01*
X017563Y010887D02*
X002737Y010887D01*
X002645Y010985D02*
X017655Y010985D01*
X017754Y011084D02*
X002546Y011084D01*
X002512Y011182D02*
X017788Y011182D01*
X017690Y011281D02*
X002610Y011281D01*
X002709Y011379D02*
X017591Y011379D01*
X017563Y011478D02*
X002737Y011478D01*
X002737Y011576D02*
X017563Y011576D01*
X017563Y011675D02*
X002737Y011675D01*
X002737Y011773D02*
X017563Y011773D01*
X017563Y011872D02*
X002737Y011872D01*
X002660Y011970D02*
X017640Y011970D01*
X017739Y012069D02*
X002561Y012069D01*
X002497Y012167D02*
X017803Y012167D01*
X017705Y012266D02*
X002595Y012266D01*
X002694Y012364D02*
X017606Y012364D01*
X017563Y012463D02*
X002737Y012463D01*
X002737Y012561D02*
X017563Y012561D01*
X017563Y012660D02*
X002737Y012660D01*
X002737Y012758D02*
X017563Y012758D01*
X017563Y012857D02*
X002737Y012857D01*
X002675Y012955D02*
X017625Y012955D01*
X017724Y013054D02*
X002576Y013054D01*
X002482Y013152D02*
X017818Y013152D01*
X017720Y013251D02*
X002580Y013251D01*
X002679Y013349D02*
X017621Y013349D01*
X017563Y013448D02*
X002737Y013448D01*
X002737Y013546D02*
X017563Y013546D01*
X017563Y013645D02*
X002737Y013645D01*
X002737Y013743D02*
X017563Y013743D01*
X017563Y013842D02*
X002737Y013842D01*
X002690Y013940D02*
X017610Y013940D01*
X017709Y014039D02*
X002591Y014039D01*
X002493Y014137D02*
X017807Y014137D01*
X017906Y014236D02*
X002394Y014236D01*
X001906Y014236D02*
X000600Y014236D01*
X000600Y014334D02*
X019700Y014334D01*
X019700Y014236D02*
X019394Y014236D01*
X019493Y014137D02*
X019700Y014137D01*
X019700Y014039D02*
X019591Y014039D01*
X019690Y013940D02*
X019700Y013940D01*
X019700Y014433D02*
X000600Y014433D01*
X000600Y014531D02*
X019700Y014531D01*
X019700Y014630D02*
X000600Y014630D01*
X000600Y014728D02*
X019700Y014728D01*
X019700Y014827D02*
X000600Y014827D01*
X000600Y014925D02*
X019700Y014925D01*
X019700Y015024D02*
X000600Y015024D01*
X000600Y015122D02*
X019700Y015122D01*
X019700Y015221D02*
X000600Y015221D01*
X000600Y015319D02*
X019700Y015319D01*
X019700Y015418D02*
X000600Y015418D01*
X000600Y015516D02*
X019700Y015516D01*
X019700Y015615D02*
X000600Y015615D01*
X000600Y015713D02*
X019700Y015713D01*
X019700Y015812D02*
X000600Y015812D01*
X000600Y015910D02*
X019700Y015910D01*
X019700Y016009D02*
X000600Y016009D01*
X000600Y016107D02*
X019700Y016107D01*
X019700Y016206D02*
X000600Y016206D01*
X000600Y016304D02*
X019700Y016304D01*
X019700Y016403D02*
X000600Y016403D01*
X000600Y016501D02*
X019700Y016501D01*
X019700Y016600D02*
X000600Y016600D01*
X000600Y016698D02*
X019700Y016698D01*
X019700Y016797D02*
X000600Y016797D01*
X000600Y016895D02*
X019700Y016895D01*
X019700Y016994D02*
X000600Y016994D01*
X000600Y017092D02*
X019700Y017092D01*
X019700Y017191D02*
X000600Y017191D01*
X000600Y017289D02*
X019700Y017289D01*
X019700Y017388D02*
X000600Y017388D01*
X000600Y017486D02*
X019700Y017486D01*
X019700Y017585D02*
X000600Y017585D01*
X000600Y017683D02*
X019700Y017683D01*
X019700Y017782D02*
X000600Y017782D01*
X000600Y017880D02*
X019700Y017880D01*
X019700Y017979D02*
X000600Y017979D01*
X000600Y018077D02*
X019700Y018077D01*
X019700Y018176D02*
X000600Y018176D01*
X000600Y018274D02*
X019700Y018274D01*
X019700Y018373D02*
X000600Y018373D01*
X000600Y018471D02*
X019700Y018471D01*
X019700Y018570D02*
X000600Y018570D01*
X000600Y018668D02*
X019700Y018668D01*
X019700Y018767D02*
X000600Y018767D01*
X000600Y018865D02*
X019700Y018865D01*
X019700Y018964D02*
X000600Y018964D01*
X000600Y019062D02*
X019700Y019062D01*
X019700Y019161D02*
X000600Y019161D01*
X000600Y019259D02*
X019700Y019259D01*
X019700Y019358D02*
X000600Y019358D01*
X000600Y019456D02*
X019700Y019456D01*
X019700Y019555D02*
X000600Y019555D01*
X000600Y019653D02*
X019700Y019653D01*
X019700Y019752D02*
X000600Y019752D01*
X000600Y019850D02*
X019700Y019850D01*
X019700Y019949D02*
X000600Y019949D01*
X000600Y020047D02*
X019700Y020047D01*
X019700Y020146D02*
X000600Y020146D01*
X000600Y020244D02*
X019700Y020244D01*
X019700Y020343D02*
X000600Y020343D01*
X000600Y020441D02*
X019700Y020441D01*
X019700Y020540D02*
X000600Y020540D01*
X000600Y020638D02*
X019700Y020638D01*
X019700Y020737D02*
X000600Y020737D01*
X000600Y020835D02*
X019700Y020835D01*
X019700Y020934D02*
X000600Y020934D01*
X000600Y021032D02*
X019700Y021032D01*
X019700Y021131D02*
X000600Y021131D01*
X000600Y021229D02*
X019700Y021229D01*
X019700Y021328D02*
X010405Y021328D01*
X010302Y021285D02*
X010583Y021401D01*
X010799Y021617D01*
X010915Y021898D01*
X010915Y022202D01*
X010799Y022483D01*
X010583Y022699D01*
X010302Y022815D01*
X009998Y022815D01*
X009717Y022699D01*
X009501Y022483D01*
X009385Y022202D01*
X009385Y021898D01*
X009501Y021617D01*
X009717Y021401D01*
X009998Y021285D01*
X010302Y021285D01*
X010608Y021426D02*
X019700Y021426D01*
X019700Y021525D02*
X010706Y021525D01*
X010801Y021623D02*
X019700Y021623D01*
X019700Y021722D02*
X010842Y021722D01*
X010883Y021820D02*
X019700Y021820D01*
X019700Y021919D02*
X010915Y021919D01*
X010915Y022017D02*
X019700Y022017D01*
X019700Y022116D02*
X010915Y022116D01*
X010910Y022214D02*
X019700Y022214D01*
X019700Y022313D02*
X010869Y022313D01*
X010828Y022411D02*
X019700Y022411D01*
X019700Y022510D02*
X010772Y022510D01*
X010674Y022608D02*
X019700Y022608D01*
X019700Y022707D02*
X010564Y022707D01*
X010326Y022805D02*
X019700Y022805D01*
X019700Y022904D02*
X000600Y022904D01*
X000600Y023002D02*
X019700Y023002D01*
X019700Y023101D02*
X000600Y023101D01*
X000600Y023199D02*
X019700Y023199D01*
X019700Y023298D02*
X000600Y023298D01*
X000600Y023396D02*
X019700Y023396D01*
X019700Y023495D02*
X000600Y023495D01*
X000600Y023593D02*
X019700Y023593D01*
X019700Y023692D02*
X010318Y023692D01*
X010302Y023685D02*
X010583Y023801D01*
X010799Y024017D01*
X010915Y024298D01*
X010915Y024602D01*
X010799Y024883D01*
X010583Y025099D01*
X010302Y025215D01*
X009998Y025215D01*
X009717Y025099D01*
X009501Y024883D01*
X009385Y024602D01*
X009385Y024298D01*
X009501Y024017D01*
X009717Y023801D01*
X009998Y023685D01*
X010302Y023685D01*
X010556Y023790D02*
X018556Y023790D01*
X018315Y023889D02*
X010670Y023889D01*
X010769Y023987D02*
X018157Y023987D01*
X018059Y024086D02*
X010827Y024086D01*
X010868Y024184D02*
X017964Y024184D01*
X017907Y024283D02*
X010909Y024283D01*
X010915Y024381D02*
X017851Y024381D01*
X017810Y024480D02*
X010915Y024480D01*
X010915Y024578D02*
X017784Y024578D01*
X017758Y024677D02*
X010884Y024677D01*
X010843Y024775D02*
X017750Y024775D01*
X017750Y024874D02*
X010803Y024874D01*
X010710Y024972D02*
X017750Y024972D01*
X017770Y025071D02*
X010611Y025071D01*
X010413Y025169D02*
X017797Y025169D01*
X017823Y025268D02*
X002477Y025268D01*
X002503Y025169D02*
X009887Y025169D01*
X009689Y025071D02*
X002530Y025071D01*
X002550Y024972D02*
X009590Y024972D01*
X009497Y024874D02*
X002550Y024874D01*
X002550Y024775D02*
X009457Y024775D01*
X009416Y024677D02*
X002542Y024677D01*
X002516Y024578D02*
X009385Y024578D01*
X009385Y024480D02*
X002490Y024480D01*
X002449Y024381D02*
X009385Y024381D01*
X009391Y024283D02*
X002393Y024283D01*
X002336Y024184D02*
X009432Y024184D01*
X009473Y024086D02*
X002241Y024086D01*
X002143Y023987D02*
X009531Y023987D01*
X009630Y023889D02*
X001985Y023889D01*
X001744Y023790D02*
X009744Y023790D01*
X009982Y023692D02*
X000600Y023692D01*
X000600Y023790D02*
X001156Y023790D01*
X000915Y023889D02*
X000600Y023889D01*
X000600Y023987D02*
X000757Y023987D01*
X000659Y024086D02*
X000600Y024086D01*
X000600Y022805D02*
X009974Y022805D01*
X009736Y022707D02*
X000600Y022707D01*
X000600Y022608D02*
X009626Y022608D01*
X009528Y022510D02*
X000600Y022510D01*
X000600Y022411D02*
X009472Y022411D01*
X009431Y022313D02*
X000600Y022313D01*
X000600Y022214D02*
X009390Y022214D01*
X009385Y022116D02*
X000600Y022116D01*
X000600Y022017D02*
X009385Y022017D01*
X009385Y021919D02*
X000600Y021919D01*
X000600Y021820D02*
X009417Y021820D01*
X009458Y021722D02*
X000600Y021722D01*
X000600Y021623D02*
X009499Y021623D01*
X009594Y021525D02*
X000600Y021525D01*
X000600Y021426D02*
X009692Y021426D01*
X009895Y021328D02*
X000600Y021328D01*
X002422Y025366D02*
X017878Y025366D01*
X017935Y025465D02*
X002365Y025465D01*
X002293Y025563D02*
X018007Y025563D01*
X018106Y025662D02*
X002194Y025662D01*
X001807Y014137D02*
X000600Y014137D01*
X000600Y014039D02*
X000907Y014039D01*
X000808Y013940D02*
X000600Y013940D01*
X000600Y013842D02*
X000710Y013842D01*
X000703Y013743D02*
X000600Y013743D01*
X000600Y013645D02*
X001102Y013645D01*
X001102Y013743D02*
X001198Y013743D01*
X001198Y013842D02*
X001102Y013842D01*
X001102Y013940D02*
X001198Y013940D01*
X001198Y014039D02*
X001102Y014039D01*
X001393Y014039D02*
X001709Y014039D01*
X001610Y013940D02*
X001492Y013940D01*
X000819Y013349D02*
X000600Y013349D01*
X000600Y013251D02*
X000918Y013251D01*
X000822Y013152D02*
X000600Y013152D01*
X000600Y013054D02*
X000724Y013054D01*
X000625Y012955D02*
X000600Y012955D01*
X000600Y013448D02*
X000721Y013448D01*
X000703Y013546D02*
X000600Y013546D01*
X002724Y010394D02*
X003814Y010394D01*
X003740Y010296D02*
X002625Y010296D01*
X002527Y010197D02*
X003740Y010197D01*
X003740Y010099D02*
X002531Y010099D01*
X002630Y010000D02*
X003740Y010000D01*
X003819Y009902D02*
X002728Y009902D01*
X002737Y009409D02*
X017563Y009409D01*
X017660Y009311D02*
X002640Y009311D01*
X002542Y009212D02*
X017758Y009212D01*
X017784Y009114D02*
X002516Y009114D01*
X002615Y009015D02*
X017685Y009015D01*
X017587Y008917D02*
X002713Y008917D01*
X002737Y008818D02*
X017563Y008818D01*
X017563Y008720D02*
X002737Y008720D01*
X002737Y008621D02*
X003843Y008621D01*
X003922Y008700D02*
X003600Y008378D01*
X003600Y007922D01*
X003922Y007600D01*
X004378Y007600D01*
X004700Y007922D01*
X004700Y008378D01*
X004378Y008700D01*
X003922Y008700D01*
X003745Y008523D02*
X002737Y008523D01*
X002737Y008424D02*
X003646Y008424D01*
X003600Y008326D02*
X002655Y008326D01*
X002557Y008227D02*
X003600Y008227D01*
X003600Y008129D02*
X002501Y008129D01*
X002600Y008030D02*
X003600Y008030D01*
X003600Y007932D02*
X002698Y007932D01*
X002737Y007833D02*
X003689Y007833D01*
X003788Y007735D02*
X002737Y007735D01*
X002737Y007636D02*
X003886Y007636D01*
X003518Y007439D02*
X002737Y007439D01*
X002737Y007538D02*
X005777Y007538D01*
X005875Y007636D02*
X004414Y007636D01*
X004512Y007735D02*
X005974Y007735D01*
X006072Y007833D02*
X004611Y007833D01*
X004700Y007932D02*
X006171Y007932D01*
X006269Y008030D02*
X004700Y008030D01*
X004700Y008129D02*
X006368Y008129D01*
X006466Y008227D02*
X004700Y008227D01*
X004700Y008326D02*
X006565Y008326D01*
X006646Y008424D02*
X004654Y008424D01*
X004555Y008523D02*
X006745Y008523D01*
X006843Y008621D02*
X004457Y008621D01*
X003750Y007190D02*
X005910Y007190D01*
X006870Y008150D01*
X007150Y008150D01*
X007457Y008621D02*
X008843Y008621D01*
X008745Y008523D02*
X007555Y008523D01*
X007654Y008424D02*
X008646Y008424D01*
X008565Y008326D02*
X007700Y008326D01*
X007700Y008227D02*
X008466Y008227D01*
X008368Y008129D02*
X007700Y008129D01*
X007700Y008030D02*
X008269Y008030D01*
X008171Y007932D02*
X007700Y007932D01*
X007611Y007833D02*
X008072Y007833D01*
X007974Y007735D02*
X007512Y007735D01*
X007414Y007636D02*
X007875Y007636D01*
X007777Y007538D02*
X006738Y007538D01*
X006837Y007636D02*
X006886Y007636D01*
X006640Y007439D02*
X007678Y007439D01*
X007580Y007341D02*
X006541Y007341D01*
X006443Y007242D02*
X007481Y007242D01*
X007383Y007144D02*
X006344Y007144D01*
X006246Y007045D02*
X007284Y007045D01*
X007186Y006947D02*
X006147Y006947D01*
X007270Y006550D02*
X008870Y008150D01*
X007270Y006550D02*
X003030Y006550D01*
X002150Y005670D01*
X002150Y005650D01*
X002150Y006650D02*
X002150Y006710D01*
X002230Y006790D01*
X003350Y006790D01*
X003750Y007190D01*
X003420Y007341D02*
X002670Y007341D01*
X002572Y007242D02*
X003321Y007242D01*
X003223Y007144D02*
X002486Y007144D01*
X001683Y004287D02*
X001617Y004287D01*
X001518Y004189D02*
X001782Y004189D01*
X001880Y004090D02*
X001420Y004090D01*
X001171Y002514D02*
X000600Y002514D01*
X000600Y002416D02*
X000922Y002416D01*
X000761Y002317D02*
X000600Y002317D01*
X000600Y002219D02*
X000663Y002219D01*
X018420Y004090D02*
X018880Y004090D01*
X018782Y004189D02*
X018518Y004189D01*
X018617Y004287D02*
X018683Y004287D01*
X018591Y014039D02*
X018709Y014039D01*
X018807Y014137D02*
X018493Y014137D01*
X018394Y014236D02*
X018906Y014236D01*
X019144Y023790D02*
X019700Y023790D01*
X019700Y023889D02*
X019385Y023889D01*
X019543Y023987D02*
X019700Y023987D01*
X019700Y024086D02*
X019641Y024086D01*
M02*
